<?xml version="1.0" encoding="utf-8" standalone="no"?>
<!DOCTYPE svg PUBLIC "-//W3C//DTD SVG 1.1//EN"
  "http://www.w3.org/Graphics/SVG/1.1/DTD/svg11.dtd">
<svg xmlns:xlink="http://www.w3.org/1999/xlink" width="593.5761pt" height="269.424pt" viewBox="0 0 593.5761 269.424" xmlns="http://www.w3.org/2000/svg" version="1.1">
 <metadata>
  <rdf:RDF xmlns:dc="http://purl.org/dc/elements/1.1/" xmlns:cc="http://creativecommons.org/ns#" xmlns:rdf="http://www.w3.org/1999/02/22-rdf-syntax-ns#">
   <cc:Work>
    <dc:type rdf:resource="http://purl.org/dc/dcmitype/StillImage"/>
    <dc:date>2026-06-25T13:27:09.026671</dc:date>
    <dc:format>image/svg+xml</dc:format>
    <dc:creator>
     <cc:Agent>
      <dc:title>Matplotlib v3.8.3, https://matplotlib.org/</dc:title>
     </cc:Agent>
    </dc:creator>
   </cc:Work>
  </rdf:RDF>
 </metadata>
 <defs>
  <style type="text/css">*{stroke-linejoin: round; stroke-linecap: butt}</style>
 </defs>
 <g id="figure_1">
  <g id="patch_1">
   <path d="M 0 269.424 
L 593.5761 269.424 
L 593.5761 0 
L 0 0 
z
" style="fill: #ffffff"/>
  </g>
  <g id="axes_1">
   <g id="patch_2">
    <path d="M 167.904 93.90816 
L 226.8288 93.90816 
L 226.8288 60.75504 
L 167.904 60.75504 
z
" clip-path="url(#p0de423f9c1)" style="fill: #ef4444; opacity: 0.92; stroke: #ffffff; stroke-width: 1.6; stroke-linejoin: miter"/>
   </g>
   <g id="patch_3">
    <path d="M 226.8288 93.90816 
L 285.7536 93.90816 
L 285.7536 60.75504 
L 226.8288 60.75504 
z
" clip-path="url(#p0de423f9c1)" style="fill: #ef4444; opacity: 0.92; stroke: #ffffff; stroke-width: 1.6; stroke-linejoin: miter"/>
   </g>
   <g id="patch_4">
    <path d="M 285.7536 93.90816 
L 344.6784 93.90816 
L 344.6784 60.75504 
L 285.7536 60.75504 
z
" clip-path="url(#p0de423f9c1)" style="fill: #ef4444; opacity: 0.92; stroke: #ffffff; stroke-width: 1.6; stroke-linejoin: miter"/>
   </g>
   <g id="patch_5">
    <path d="M 344.6784 93.90816 
L 403.6032 93.90816 
L 403.6032 60.75504 
L 344.6784 60.75504 
z
" clip-path="url(#p0de423f9c1)" style="fill: #ef4444; opacity: 0.92; stroke: #ffffff; stroke-width: 1.6; stroke-linejoin: miter"/>
   </g>
   <g id="patch_6">
    <path d="M 167.904 144.91296 
L 226.8288 144.91296 
L 226.8288 111.75984 
L 167.904 111.75984 
z
" clip-path="url(#p0de423f9c1)" style="fill: #ef4444; opacity: 0.92; stroke: #ffffff; stroke-width: 1.6; stroke-linejoin: miter"/>
   </g>
   <g id="patch_7">
    <path d="M 226.8288 144.91296 
L 285.7536 144.91296 
L 285.7536 111.75984 
L 226.8288 111.75984 
z
" clip-path="url(#p0de423f9c1)" style="fill: #3b82f6; opacity: 0.92; stroke: #ffffff; stroke-width: 1.6; stroke-linejoin: miter"/>
   </g>
   <g id="patch_8">
    <path d="M 285.7536 144.91296 
L 344.6784 144.91296 
L 344.6784 111.75984 
L 285.7536 111.75984 
z
" clip-path="url(#p0de423f9c1)" style="fill: #ef4444; opacity: 0.92; stroke: #ffffff; stroke-width: 1.6; stroke-linejoin: miter"/>
   </g>
   <g id="patch_9">
    <path d="M 344.6784 144.91296 
L 403.6032 144.91296 
L 403.6032 111.75984 
L 344.6784 111.75984 
z
" clip-path="url(#p0de423f9c1)" style="fill: #3b82f6; opacity: 0.92; stroke: #ffffff; stroke-width: 1.6; stroke-linejoin: miter"/>
   </g>
   <g id="patch_10">
    <path d="M 167.904 195.91776 
L 226.8288 195.91776 
L 226.8288 162.76464 
L 167.904 162.76464 
z
" clip-path="url(#p0de423f9c1)" style="fill: #ef4444; opacity: 0.92; stroke: #ffffff; stroke-width: 1.6; stroke-linejoin: miter"/>
   </g>
   <g id="patch_11">
    <path d="M 226.8288 195.91776 
L 285.7536 195.91776 
L 285.7536 162.76464 
L 226.8288 162.76464 
z
" clip-path="url(#p0de423f9c1)" style="fill: #3b82f6; opacity: 0.92; stroke: #ffffff; stroke-width: 1.6; stroke-linejoin: miter"/>
   </g>
   <g id="patch_12">
    <path d="M 285.7536 195.91776 
L 344.6784 195.91776 
L 344.6784 162.76464 
L 285.7536 162.76464 
z
" clip-path="url(#p0de423f9c1)" style="fill: #10b981; opacity: 0.92; stroke: #ffffff; stroke-width: 1.6; stroke-linejoin: miter"/>
   </g>
   <g id="patch_13">
    <path d="M 344.6784 195.91776 
L 403.6032 195.91776 
L 403.6032 162.76464 
L 344.6784 162.76464 
z
" clip-path="url(#p0de423f9c1)" style="fill: #f59e0b; opacity: 0.92; stroke: #ffffff; stroke-width: 1.6; stroke-linejoin: miter"/>
   </g>
   <g id="text_1">
    <!-- scale_vec 模式：一个 TMEM u32 如何打包 K-block 缩放因子 -->
    <g style="fill: #1f2937" transform="translate(113.0175 24.062595) scale(0.12 -0.12)">
     <defs>
      <path id="ArialUnicodeMS-73" d="M 2278 2388 
Q 2241 2659 2058 2795 
Q 1875 2931 1550 2931 
Q 1228 2931 1029 2822 
Q 831 2713 831 2503 
Q 831 2306 989 2222 
Q 1147 2138 1613 2016 
Q 2138 1881 2398 1778 
Q 2659 1675 2804 1489 
Q 2950 1303 2950 972 
Q 2950 528 2587 225 
Q 2225 -78 1619 -78 
Q 988 -78 633 189 
Q 278 456 197 991 
L 756 1075 
Q 800 728 1014 556 
Q 1228 384 1613 384 
Q 1981 384 2178 539 
Q 2375 694 2375 916 
Q 2375 1066 2284 1156 
Q 2194 1247 2058 1292 
Q 1922 1338 1447 1453 
Q 741 1622 514 1862 
Q 288 2103 288 2438 
Q 288 2853 619 3122 
Q 950 3391 1509 3391 
Q 2103 3391 2433 3158 
Q 2763 2925 2828 2463 
L 2278 2388 
z
" transform="scale(0.015625)"/>
      <path id="ArialUnicodeMS-63" d="M 3144 1147 
Q 3034 513 2643 217 
Q 2253 -78 1759 -78 
Q 1038 -78 644 395 
Q 250 869 250 1650 
Q 250 2297 476 2686 
Q 703 3075 1043 3233 
Q 1384 3391 1759 3391 
Q 2272 3391 2636 3125 
Q 3000 2859 3084 2344 
L 2541 2259 
Q 2456 2594 2267 2762 
Q 2078 2931 1784 2931 
Q 1313 2931 1069 2597 
Q 825 2263 825 1663 
Q 825 1050 1064 717 
Q 1303 384 1753 384 
Q 2116 384 2323 592 
Q 2531 800 2584 1216 
L 3144 1147 
z
" transform="scale(0.015625)"/>
      <path id="ArialUnicodeMS-61" d="M 3303 0 
L 2713 0 
Q 2631 156 2597 409 
Q 2031 -78 1375 -78 
Q 850 -78 547 184 
Q 244 447 244 878 
Q 244 1291 536 1558 
Q 828 1825 1550 1913 
L 2075 1991 
Q 2369 2038 2559 2106 
Q 2559 2359 2543 2464 
Q 2528 2569 2451 2681 
Q 2375 2794 2206 2862 
Q 2038 2931 1753 2931 
Q 1391 2931 1180 2797 
Q 969 2663 891 2297 
L 341 2369 
Q 431 2878 806 3134 
Q 1181 3391 1838 3391 
Q 2434 3391 2714 3214 
Q 2994 3038 3058 2788 
Q 3122 2538 3122 2144 
L 3122 1388 
Q 3122 697 3148 461 
Q 3175 225 3303 0 
z
M 2559 1459 
L 2559 1663 
Q 2119 1516 1481 1430 
Q 844 1344 844 891 
Q 844 663 1016 514 
Q 1188 366 1509 366 
Q 1925 366 2242 614 
Q 2559 863 2559 1459 
z
" transform="scale(0.015625)"/>
      <path id="ArialUnicodeMS-6c" d="M 991 0 
L 428 0 
L 428 4581 
L 991 4581 
L 991 0 
z
" transform="scale(0.015625)"/>
      <path id="ArialUnicodeMS-65" d="M 3309 1516 
L 825 1516 
Q 859 966 1139 675 
Q 1419 384 1838 384 
Q 2159 384 2378 554 
Q 2597 725 2713 1069 
L 3291 997 
Q 3150 478 2775 200 
Q 2400 -78 1838 -78 
Q 1091 -78 670 380 
Q 250 838 250 1631 
Q 250 2416 658 2903 
Q 1066 3391 1806 3391 
Q 2169 3391 2505 3231 
Q 2841 3072 3075 2689 
Q 3309 2306 3309 1516 
z
M 2731 1978 
Q 2697 2484 2417 2707 
Q 2138 2931 1806 2931 
Q 1409 2931 1153 2665 
Q 897 2400 856 1978 
L 2731 1978 
z
" transform="scale(0.015625)"/>
      <path id="ArialUnicodeMS-5f" d="M 3238 -800 
L -38 -800 
L -38 -481 
L 3238 -481 
L 3238 -800 
z
" transform="scale(0.015625)"/>
      <path id="ArialUnicodeMS-76" d="M 3122 3316 
L 1869 0 
L 1344 0 
L 84 3316 
L 678 3316 
L 1363 1397 
Q 1556 853 1594 659 
L 1606 659 
Q 1656 859 1778 1197 
L 2547 3316 
L 3122 3316 
z
" transform="scale(0.015625)"/>
      <path id="ArialUnicodeMS-20" transform="scale(0.015625)"/>
      <path id="ArialUnicodeMS-6a21" d="M 5906 4213 
L 5063 4213 
L 5063 3809 
L 4575 3809 
L 4575 4213 
L 3469 4213 
L 3469 3809 
L 2981 3809 
L 2981 4213 
L 2131 4213 
L 2131 4678 
L 2981 4678 
L 2981 5300 
L 3469 5300 
L 3469 4678 
L 4575 4678 
L 4575 5300 
L 5063 5300 
L 5063 4678 
L 5906 4678 
L 5906 4213 
z
M 2503 1947 
L 2088 1684 
Q 1891 2191 1716 2394 
L 1716 -441 
L 1222 -441 
L 1222 2088 
Q 1066 1534 588 941 
L 197 1281 
Q 1044 2356 1216 3572 
L 397 3572 
L 397 4038 
L 1209 4038 
L 1209 5281 
L 1716 5281 
L 1716 4038 
L 2406 4038 
L 2406 3572 
L 1716 3572 
L 1716 2900 
L 1856 2969 
Q 2316 2422 2503 1947 
z
M 6094 -25 
L 5838 -422 
Q 4453 -172 4025 838 
Q 3584 -53 2241 -428 
L 1972 -6 
Q 3103 253 3506 856 
L 2247 856 
L 2247 1325 
L 3706 1325 
L 3788 1684 
L 2553 1684 
L 2553 3675 
L 5491 3675 
L 5491 1684 
L 4250 1684 
Q 4222 1453 4178 1325 
L 5791 1325 
L 5791 856 
L 4519 856 
Q 4981 197 6094 -25 
z
M 4984 2925 
L 4984 3206 
L 3059 3206 
L 3059 2925 
L 4984 2925 
z
M 4984 2150 
L 4984 2456 
L 3059 2456 
L 3059 2150 
L 4984 2150 
z
" transform="scale(0.015625)"/>
      <path id="ArialUnicodeMS-5f0f" d="M 6041 903 
Q 5941 256 5798 -70 
Q 5656 -397 5394 -397 
Q 4959 -397 4350 570 
Q 3741 1538 3513 3634 
L 475 3634 
L 475 4103 
L 3469 4103 
Q 3441 4381 3391 5319 
L 3897 5338 
Q 3934 4459 3975 4103 
L 5819 4103 
L 5819 3634 
L 4025 3634 
Q 4091 2678 4333 1870 
Q 4575 1063 4892 614 
Q 5209 166 5325 166 
Q 5472 166 5550 1113 
L 6041 903 
z
M 5509 4513 
L 5166 4147 
Q 4781 4616 4038 4800 
L 4422 5166 
Q 5066 5025 5509 4513 
z
M 3675 800 
L 756 63 
L 575 519 
L 1881 838 
L 1881 2369 
L 863 2369 
L 863 2834 
L 3359 2834 
L 3359 2369 
L 2369 2369 
L 2369 972 
L 3641 1269 
L 3675 800 
z
" transform="scale(0.015625)"/>
      <path id="ArialUnicodeMS-ff1a" d="M 3520 2675 
L 2879 2675 
L 2879 3316 
L 3520 3316 
L 3520 2675 
z
M 3520 0 
L 2879 0 
L 2879 641 
L 3520 641 
L 3520 0 
z
" transform="scale(0.015625)"/>
      <path id="ArialUnicodeMS-4e00" d="M 5734 2278 
L 775 2278 
L 775 2809 
L 5734 2809 
L 5734 2278 
z
" transform="scale(0.015625)"/>
      <path id="ArialUnicodeMS-4e2a" d="M 6113 2503 
L 5728 2163 
Q 3956 3153 3200 4469 
Q 2788 3750 2070 3109 
Q 1353 2469 609 2156 
L 191 2491 
Q 2191 3438 3116 5325 
L 3547 5125 
L 3463 4947 
Q 4066 3694 6113 2503 
z
M 3406 -447 
L 2919 -447 
L 2919 3531 
L 3406 3531 
L 3406 -447 
z
" transform="scale(0.015625)"/>
      <path id="ArialUnicodeMS-54" d="M 3769 4038 
L 2253 4038 
L 2253 0 
L 1644 0 
L 1644 4038 
L 141 4038 
L 141 4581 
L 3769 4581 
L 3769 4038 
z
" transform="scale(0.015625)"/>
      <path id="ArialUnicodeMS-4d" d="M 4844 0 
L 4269 0 
L 4269 3834 
L 4256 3834 
L 2938 0 
L 2394 0 
L 1081 3897 
L 1063 3897 
L 1063 0 
L 488 0 
L 488 4581 
L 1394 4581 
L 2478 1338 
Q 2659 797 2688 659 
L 2700 659 
Q 2784 925 2944 1394 
L 4038 4581 
L 4844 4581 
L 4844 0 
z
" transform="scale(0.015625)"/>
      <path id="ArialUnicodeMS-45" d="M 3928 0 
L 506 0 
L 506 4581 
L 3822 4581 
L 3822 4038 
L 1113 4038 
L 1113 2638 
L 3647 2638 
L 3647 2094 
L 1113 2094 
L 1113 544 
L 3928 544 
L 3928 0 
z
" transform="scale(0.015625)"/>
      <path id="ArialUnicodeMS-75" d="M 3116 0 
L 2613 0 
L 2613 488 
L 2597 488 
Q 2216 -78 1556 -78 
Q 1209 -78 914 83 
Q 619 244 520 526 
Q 422 809 422 1259 
L 422 3316 
L 984 3316 
L 984 1478 
Q 984 1038 1026 847 
Q 1069 656 1247 532 
Q 1425 409 1672 409 
Q 1991 409 2272 629 
Q 2553 850 2553 1544 
L 2553 3316 
L 3116 3316 
L 3116 0 
z
" transform="scale(0.015625)"/>
      <path id="ArialUnicodeMS-33" d="M 2425 2478 
Q 2850 2397 3067 2067 
Q 3284 1738 3284 1350 
Q 3284 725 2829 323 
Q 2375 -78 1741 -78 
Q 1134 -78 740 275 
Q 347 628 281 1209 
L 844 1288 
Q 928 834 1151 609 
Q 1375 384 1741 384 
Q 2134 384 2407 661 
Q 2681 938 2681 1338 
Q 2681 1722 2432 1975 
Q 2184 2228 1784 2228 
Q 1622 2228 1388 2169 
L 1453 2663 
Q 1678 2663 1809 2684 
Q 1941 2706 2103 2790 
Q 2266 2875 2372 3033 
Q 2478 3191 2478 3425 
Q 2478 3766 2251 3953 
Q 2025 4141 1728 4141 
Q 1388 4141 1173 3925 
Q 959 3709 903 3309 
L 341 3413 
Q 450 4009 823 4306 
Q 1197 4603 1716 4603 
Q 2288 4603 2670 4258 
Q 3053 3913 3053 3413 
Q 3053 2772 2425 2491 
L 2425 2478 
z
" transform="scale(0.015625)"/>
      <path id="ArialUnicodeMS-32" d="M 3231 0 
L 197 0 
Q 197 388 467 784 
Q 738 1181 1478 1778 
Q 1931 2141 2287 2539 
Q 2644 2938 2644 3341 
Q 2644 3688 2398 3914 
Q 2153 4141 1778 4141 
Q 1400 4141 1144 3908 
Q 888 3675 884 3213 
L 306 3278 
Q 359 3922 764 4262 
Q 1169 4603 1791 4603 
Q 2466 4603 2842 4229 
Q 3219 3856 3219 3328 
Q 3219 2888 2901 2436 
Q 2584 1984 1638 1228 
Q 1141 831 978 544 
L 3231 544 
L 3231 0 
z
" transform="scale(0.015625)"/>
      <path id="ArialUnicodeMS-5982" d="M 3488 469 
L 3175 72 
Q 2669 525 2400 722 
Q 1716 -84 756 -475 
L 453 -19 
Q 1572 425 1953 984 
Q 1528 1263 856 1459 
Q 1303 2513 1459 3553 
L 659 3553 
L 659 4038 
L 1550 4038 
Q 1650 4575 1697 5216 
L 2194 5197 
Q 2191 5006 2127 4607 
Q 2063 4209 2053 4038 
L 3341 4038 
Q 3275 2150 2669 1131 
Q 3266 700 3488 469 
z
M 2828 3553 
L 1984 3553 
Q 1825 2641 1497 1741 
Q 1800 1647 2259 1409 
Q 2741 2278 2828 3553 
z
M 5741 256 
L 5269 256 
L 5269 628 
L 4153 628 
L 4153 231 
L 3669 231 
L 3669 4556 
L 5741 4556 
L 5741 256 
z
M 5253 1113 
L 5253 4072 
L 4153 4072 
L 4153 1113 
L 5253 1113 
z
" transform="scale(0.015625)"/>
      <path id="ArialUnicodeMS-4f55" d="M 2328 5153 
Q 2119 4581 2022 4341 
L 1797 3794 
L 1797 -447 
L 1313 -447 
L 1313 2988 
Q 1028 2538 622 2119 
L 213 2431 
Q 1156 3309 1888 5369 
L 2328 5153 
z
M 6131 4441 
L 5550 4441 
L 5550 263 
Q 5550 -113 5294 -238 
Q 5038 -363 4269 -347 
L 4103 178 
L 4581 172 
Q 5044 172 5044 409 
L 5044 4441 
L 2316 4441 
L 2316 4909 
L 6125 4909 
L 6131 4441 
z
M 4459 813 
L 3975 813 
L 3975 1253 
L 3016 1253 
L 3016 813 
L 2528 813 
L 2528 3634 
L 4459 3634 
L 4459 813 
z
M 3975 1722 
L 3975 3156 
L 3016 3156 
L 3016 1722 
L 3975 1722 
z
" transform="scale(0.015625)"/>
      <path id="ArialUnicodeMS-6253" d="M 3028 2131 
L 2053 1778 
L 2053 147 
Q 2013 -69 1877 -222 
Q 1741 -375 1561 -384 
Q 1381 -394 800 -384 
L 628 84 
L 1319 84 
Q 1550 84 1550 238 
L 1550 1600 
L 703 1306 
L 347 1728 
L 1550 2094 
L 1550 3541 
L 569 3541 
L 569 4006 
L 1550 4006 
L 1550 5313 
L 2053 5313 
L 2053 4006 
L 2944 4006 
L 2944 3541 
L 2053 3541 
L 2053 2278 
L 3028 2613 
L 3028 2131 
z
M 5978 4319 
L 4744 4319 
L 4744 347 
Q 4744 25 4576 -176 
Q 4409 -378 4141 -378 
L 3397 -384 
L 3250 91 
L 3994 91 
Q 4238 91 4238 300 
L 4238 4319 
L 2663 4319 
L 2663 4788 
L 5978 4788 
L 5978 4319 
z
" transform="scale(0.015625)"/>
      <path id="ArialUnicodeMS-5305" d="M 6113 1056 
Q 6031 366 5839 76 
Q 5647 -213 5203 -213 
L 2169 -213 
Q 1878 -213 1708 -34 
Q 1538 144 1538 422 
L 1538 2156 
L 3653 2156 
L 3653 2950 
L 1538 2950 
L 1538 3284 
Q 1234 2784 703 2272 
L 306 2625 
Q 1444 3653 1959 5363 
L 2450 5197 
Q 2284 4719 2181 4481 
L 5672 4481 
Q 5659 3103 5567 2248 
Q 5475 1394 5231 1195 
Q 4988 997 4716 997 
Q 4363 997 4044 1031 
Q 3938 1303 3828 1544 
Q 4400 1491 4453 1491 
Q 4747 1491 4869 1591 
Q 4991 1691 5058 2237 
Q 5125 2784 5159 4013 
L 1959 4013 
Q 1778 3631 1638 3419 
L 4159 3419 
L 4159 1697 
L 2041 1697 
L 2041 544 
Q 2041 256 2328 256 
L 5044 256 
Q 5284 256 5342 304 
Q 5400 353 5487 493 
Q 5575 634 5606 1275 
L 6113 1056 
z
" transform="scale(0.015625)"/>
      <path id="ArialUnicodeMS-4b" d="M 4256 0 
L 3456 0 
L 1831 2316 
L 1075 1588 
L 1075 0 
L 469 0 
L 469 4581 
L 1075 4581 
L 1075 2309 
L 3353 4581 
L 4172 4581 
L 2253 2725 
L 4256 0 
z
" transform="scale(0.015625)"/>
      <path id="ArialUnicodeMS-2d" d="M 1925 1375 
L 206 1375 
L 206 1941 
L 1925 1941 
L 1925 1375 
z
" transform="scale(0.015625)"/>
      <path id="ArialUnicodeMS-62" d="M 1006 2944 
Q 1319 3391 1900 3391 
Q 2541 3391 2925 2925 
Q 3309 2459 3309 1709 
Q 3309 844 2879 383 
Q 2450 -78 1875 -78 
Q 1291 -78 966 416 
L 953 416 
L 953 0 
L 428 0 
L 428 4581 
L 991 4581 
L 991 2944 
L 1006 2944 
z
M 1831 384 
Q 2222 384 2476 720 
Q 2731 1056 2731 1663 
Q 2731 2247 2497 2589 
Q 2263 2931 1850 2931 
Q 1444 2931 1195 2578 
Q 947 2225 947 1684 
Q 947 1156 1050 932 
Q 1153 709 1361 546 
Q 1569 384 1831 384 
z
" transform="scale(0.015625)"/>
      <path id="ArialUnicodeMS-6f" d="M 1778 3391 
Q 2450 3391 2892 2953 
Q 3334 2516 3334 1709 
Q 3334 731 2856 326 
Q 2378 -78 1778 -78 
Q 1150 -78 687 337 
Q 225 753 225 1656 
Q 225 2531 672 2961 
Q 1119 3391 1778 3391 
z
M 1778 384 
Q 2259 384 2509 740 
Q 2759 1097 2759 1678 
Q 2759 2300 2476 2615 
Q 2194 2931 1778 2931 
Q 1350 2931 1075 2611 
Q 800 2291 800 1656 
Q 800 1025 1079 704 
Q 1359 384 1778 384 
z
" transform="scale(0.015625)"/>
      <path id="ArialUnicodeMS-6b" d="M 3175 0 
L 2484 0 
L 1381 1697 
L 984 1319 
L 984 0 
L 422 0 
L 422 4581 
L 984 4581 
L 984 1972 
L 2316 3316 
L 3047 3316 
L 1778 2088 
L 3175 0 
z
" transform="scale(0.015625)"/>
      <path id="ArialUnicodeMS-7f29" d="M 5747 3909 
L 5259 3909 
L 5259 4325 
L 2809 4325 
L 2809 3713 
L 2322 3713 
L 2322 4794 
L 3803 4794 
Q 3666 4963 3328 5159 
L 3847 5381 
Q 4163 5134 4366 4794 
L 5747 4794 
L 5747 3909 
z
M 2309 1459 
Q 1506 1300 563 1013 
L 384 1447 
Q 853 1922 1344 2759 
Q 1253 2759 594 2584 
L 397 2969 
Q 1038 4006 1388 5044 
L 1806 4813 
Q 1522 3900 984 3103 
Q 1338 3147 1556 3188 
Q 1800 3591 1894 3816 
L 2297 3584 
Q 1822 2469 1106 1625 
L 1119 1613 
L 2309 1888 
L 2309 1459 
z
M 3463 3963 
Q 3384 3597 3294 3291 
L 3200 3022 
L 3200 -422 
L 2713 -422 
L 2713 2234 
L 2706 2247 
Q 2647 2053 2497 1919 
L 2081 2175 
Q 2847 2978 3053 4159 
L 3463 3963 
z
M 5869 3347 
L 4959 3347 
Q 4938 3153 4813 2853 
L 5594 2853 
L 5594 -422 
L 5106 -422 
L 5106 -56 
L 4141 -56 
L 4141 -422 
L 3653 -422 
L 3653 2853 
L 4306 2853 
Q 4469 3100 4506 3347 
L 3494 3347 
L 3494 3816 
L 5869 3816 
L 5869 3347 
z
M 5106 1672 
L 5106 2388 
L 4141 2388 
L 4141 1672 
L 5106 1672 
z
M 5106 409 
L 5106 1228 
L 4141 1228 
L 4141 409 
L 5106 409 
z
M 2309 428 
L 500 -206 
L 263 206 
Q 1309 519 2309 909 
L 2309 428 
z
" transform="scale(0.015625)"/>
      <path id="ArialUnicodeMS-653e" d="M 6119 -13 
L 5753 -416 
Q 4866 194 4550 697 
Q 4034 69 3303 -391 
L 2938 -31 
Q 3716 419 4281 1141 
Q 3938 1809 3809 2572 
Q 3644 2209 3506 2028 
L 3091 2272 
Q 3894 3409 3903 5388 
L 4397 5275 
Q 4369 4691 4300 4072 
L 5906 4072 
L 5906 3603 
L 5528 3603 
Q 5453 2175 4850 1147 
Q 5281 381 6119 -13 
z
M 5050 3603 
L 4206 3603 
L 4122 3322 
Q 4313 2178 4575 1638 
Q 5009 2644 5050 3603 
z
M 3366 3700 
L 1772 3700 
L 1772 2759 
L 3091 2759 
Q 3081 2100 2978 1137 
Q 2875 175 2712 -40 
Q 2550 -256 2241 -256 
Q 2194 -256 1516 -141 
L 1428 397 
Q 2081 206 2181 206 
Q 2534 206 2578 2291 
L 1747 2291 
Q 1575 619 709 -409 
L 294 -56 
Q 747 394 1025 1187 
Q 1303 1981 1300 3700 
L 588 3700 
L 588 4166 
L 1831 4166 
L 1831 5203 
L 2316 5203 
L 2316 4166 
L 3366 4166 
L 3366 3700 
z
" transform="scale(0.015625)"/>
      <path id="ArialUnicodeMS-56e0" d="M 5569 -372 
L 5088 -372 
L 5088 -31 
L 1313 -31 
L 1313 -409 
L 831 -409 
L 831 5075 
L 5569 5075 
L 5569 -372 
z
M 5088 434 
L 5088 4588 
L 1313 4588 
L 1313 434 
L 5088 434 
z
M 5044 947 
L 4653 575 
Q 3550 1316 3297 2278 
Q 3044 1231 1716 544 
L 1394 959 
Q 2856 1566 2913 2938 
L 1550 2938 
L 1550 3406 
L 2950 3406 
L 2950 4494 
L 3438 4494 
L 3438 3406 
L 4819 3406 
L 4819 2938 
L 3519 2938 
Q 3891 1584 5044 947 
z
" transform="scale(0.015625)"/>
      <path id="ArialUnicodeMS-5b50" d="M 5894 2328 
L 3566 2328 
L 3566 191 
Q 3566 -31 3425 -172 
Q 3284 -313 3034 -313 
L 2247 -313 
L 2016 184 
L 2822 147 
Q 3078 138 3078 447 
L 3078 2328 
L 628 2328 
L 628 2797 
L 3078 2797 
L 3078 3438 
Q 3856 3947 4403 4569 
L 1416 4569 
L 1416 5038 
L 5100 5038 
L 5100 4678 
Q 4438 3794 3566 3200 
L 3566 2797 
L 5894 2797 
L 5894 2328 
z
" transform="scale(0.015625)"/>
     </defs>
     <use xlink:href="#ArialUnicodeMS-73"/>
     <use xlink:href="#ArialUnicodeMS-63" x="50"/>
     <use xlink:href="#ArialUnicodeMS-61" x="100"/>
     <use xlink:href="#ArialUnicodeMS-6c" x="155.615234"/>
     <use xlink:href="#ArialUnicodeMS-65" x="177.832031"/>
     <use xlink:href="#ArialUnicodeMS-5f" x="233.447266"/>
     <use xlink:href="#ArialUnicodeMS-76" x="283.447266"/>
     <use xlink:href="#ArialUnicodeMS-65" x="333.447266"/>
     <use xlink:href="#ArialUnicodeMS-63" x="389.0625"/>
     <use xlink:href="#ArialUnicodeMS-20" x="439.0625"/>
     <use xlink:href="#ArialUnicodeMS-6a21" x="466.845703"/>
     <use xlink:href="#ArialUnicodeMS-5f0f" x="566.845703"/>
     <use xlink:href="#ArialUnicodeMS-ff1a" x="666.845703"/>
     <use xlink:href="#ArialUnicodeMS-4e00" x="766.845703"/>
     <use xlink:href="#ArialUnicodeMS-4e2a" x="866.845703"/>
     <use xlink:href="#ArialUnicodeMS-20" x="966.845703"/>
     <use xlink:href="#ArialUnicodeMS-54" x="994.628906"/>
     <use xlink:href="#ArialUnicodeMS-4d" x="1055.712891"/>
     <use xlink:href="#ArialUnicodeMS-45" x="1139.013672"/>
     <use xlink:href="#ArialUnicodeMS-4d" x="1205.712891"/>
     <use xlink:href="#ArialUnicodeMS-20" x="1289.013672"/>
     <use xlink:href="#ArialUnicodeMS-75" x="1316.796875"/>
     <use xlink:href="#ArialUnicodeMS-33" x="1372.412109"/>
     <use xlink:href="#ArialUnicodeMS-32" x="1428.027344"/>
     <use xlink:href="#ArialUnicodeMS-20" x="1483.642578"/>
     <use xlink:href="#ArialUnicodeMS-5982" x="1511.425781"/>
     <use xlink:href="#ArialUnicodeMS-4f55" x="1611.425781"/>
     <use xlink:href="#ArialUnicodeMS-6253" x="1711.425781"/>
     <use xlink:href="#ArialUnicodeMS-5305" x="1811.425781"/>
     <use xlink:href="#ArialUnicodeMS-20" x="1911.425781"/>
     <use xlink:href="#ArialUnicodeMS-4b" x="1939.208984"/>
     <use xlink:href="#ArialUnicodeMS-2d" x="2005.908203"/>
     <use xlink:href="#ArialUnicodeMS-62" x="2039.208984"/>
     <use xlink:href="#ArialUnicodeMS-6c" x="2094.824219"/>
     <use xlink:href="#ArialUnicodeMS-6f" x="2117.041016"/>
     <use xlink:href="#ArialUnicodeMS-63" x="2172.65625"/>
     <use xlink:href="#ArialUnicodeMS-6b" x="2222.65625"/>
     <use xlink:href="#ArialUnicodeMS-20" x="2272.65625"/>
     <use xlink:href="#ArialUnicodeMS-7f29" x="2300.439453"/>
     <use xlink:href="#ArialUnicodeMS-653e" x="2400.439453"/>
     <use xlink:href="#ArialUnicodeMS-56e0" x="2500.439453"/>
     <use xlink:href="#ArialUnicodeMS-5b50" x="2600.439453"/>
    </g>
   </g>
   <g id="text_2">
    <!-- [0:7] -->
    <g style="fill: #1f2937" transform="translate(190.070306 44.85336) scale(0.075 -0.075)">
     <defs>
      <path id="ArialUnicodeMS-5b" d="M 1678 -1275 
L 434 -1275 
L 434 4581 
L 1678 4581 
L 1678 4116 
L 997 4116 
L 997 -806 
L 1678 -806 
L 1678 -1275 
z
" transform="scale(0.015625)"/>
      <path id="ArialUnicodeMS-30" d="M 1778 4603 
Q 3272 4603 3272 2259 
Q 3272 1075 2886 498 
Q 2500 -78 1778 -78 
Q 288 -78 288 2259 
Q 288 3444 673 4023 
Q 1059 4603 1778 4603 
z
M 1778 384 
Q 2231 384 2462 823 
Q 2694 1263 2694 2259 
Q 2694 2953 2592 3351 
Q 2491 3750 2286 3945 
Q 2081 4141 1772 4141 
Q 1319 4141 1091 3694 
Q 863 3247 863 2259 
Q 863 1575 966 1175 
Q 1069 775 1272 579 
Q 1475 384 1778 384 
z
" transform="scale(0.015625)"/>
      <path id="ArialUnicodeMS-3a" d="M 1216 2675 
L 575 2675 
L 575 3316 
L 1216 3316 
L 1216 2675 
z
M 1216 0 
L 575 0 
L 575 641 
L 1216 641 
L 1216 0 
z
" transform="scale(0.015625)"/>
      <path id="ArialUnicodeMS-37" d="M 3272 4084 
Q 2597 3344 2103 2253 
Q 1609 1163 1522 0 
L 947 0 
Q 969 934 1408 2051 
Q 1847 3169 2547 3975 
L 306 3975 
L 306 4519 
L 3272 4519 
L 3272 4084 
z
" transform="scale(0.015625)"/>
      <path id="ArialUnicodeMS-5d" d="M 1344 -1275 
L 103 -1275 
L 103 -806 
L 781 -806 
L 781 4116 
L 103 4116 
L 103 4581 
L 1344 4581 
L 1344 -1275 
z
" transform="scale(0.015625)"/>
     </defs>
     <use xlink:href="#ArialUnicodeMS-5b"/>
     <use xlink:href="#ArialUnicodeMS-30" x="27.783203"/>
     <use xlink:href="#ArialUnicodeMS-3a" x="83.398438"/>
     <use xlink:href="#ArialUnicodeMS-37" x="111.181641"/>
     <use xlink:href="#ArialUnicodeMS-5d" x="166.796875"/>
    </g>
   </g>
   <g id="text_3">
    <!-- [8:15] -->
    <g style="fill: #1f2937" transform="translate(246.909755 44.85336) scale(0.075 -0.075)">
     <defs>
      <path id="ArialUnicodeMS-38" d="M 2425 2478 
Q 3284 2203 3284 1306 
Q 3284 716 2862 319 
Q 2441 -78 1778 -78 
Q 1109 -78 689 322 
Q 269 722 269 1325 
Q 269 1759 505 2084 
Q 741 2409 1141 2478 
L 1141 2491 
Q 453 2703 453 3419 
Q 453 3925 815 4264 
Q 1178 4603 1766 4603 
Q 2363 4603 2730 4253 
Q 3097 3903 3097 3406 
Q 3097 2731 2425 2491 
L 2425 2478 
z
M 1778 2700 
Q 2094 2700 2308 2901 
Q 2522 3103 2522 3406 
Q 2522 3716 2305 3928 
Q 2088 4141 1772 4141 
Q 1450 4141 1240 3931 
Q 1031 3722 1031 3438 
Q 1031 3097 1247 2898 
Q 1463 2700 1778 2700 
z
M 1778 384 
Q 2175 384 2440 640 
Q 2706 897 2706 1306 
Q 2706 1716 2432 1978 
Q 2159 2241 1766 2241 
Q 1356 2241 1100 1970 
Q 844 1700 844 1319 
Q 844 922 1108 653 
Q 1372 384 1778 384 
z
" transform="scale(0.015625)"/>
      <path id="ArialUnicodeMS-31" d="M 2400 0 
L 1838 0 
L 1838 3584 
Q 1416 3184 709 2906 
L 709 3450 
Q 1681 3916 2034 4603 
L 2400 4603 
L 2400 0 
z
" transform="scale(0.015625)"/>
      <path id="ArialUnicodeMS-35" d="M 1013 2753 
Q 1431 3041 1881 3041 
Q 2453 3041 2878 2636 
Q 3303 2231 3303 1556 
Q 3303 875 2872 398 
Q 2441 -78 1741 -78 
Q 1169 -78 750 245 
Q 331 569 269 1203 
L 856 1247 
Q 928 813 1162 598 
Q 1397 384 1741 384 
Q 2169 384 2434 707 
Q 2700 1031 2700 1503 
Q 2700 1984 2428 2262 
Q 2156 2541 1728 2541 
Q 1188 2541 897 2100 
L 366 2163 
L 813 4519 
L 3084 4519 
L 3084 3975 
L 1259 3975 
L 1013 2753 
z
" transform="scale(0.015625)"/>
     </defs>
     <use xlink:href="#ArialUnicodeMS-5b"/>
     <use xlink:href="#ArialUnicodeMS-38" x="27.783203"/>
     <use xlink:href="#ArialUnicodeMS-3a" x="83.398438"/>
     <use xlink:href="#ArialUnicodeMS-31" x="111.181641"/>
     <use xlink:href="#ArialUnicodeMS-35" x="166.796875"/>
     <use xlink:href="#ArialUnicodeMS-5d" x="222.412109"/>
    </g>
   </g>
   <g id="text_4">
    <!-- [16:23] -->
    <g style="fill: #1f2937" transform="translate(303.749203 44.85336) scale(0.075 -0.075)">
     <defs>
      <path id="ArialUnicodeMS-36" d="M 838 2363 
Q 1225 2969 1941 2969 
Q 2503 2969 2897 2553 
Q 3291 2138 3291 1491 
Q 3291 838 2898 380 
Q 2506 -78 1856 -78 
Q 1197 -78 733 409 
Q 269 897 269 2144 
Q 269 3369 689 3986 
Q 1109 4603 1906 4603 
Q 2422 4603 2778 4315 
Q 3134 4028 3213 3463 
L 2650 3413 
Q 2497 4141 1875 4141 
Q 1444 4141 1134 3712 
Q 825 3284 825 2363 
L 838 2363 
z
M 1844 384 
Q 2231 384 2472 696 
Q 2713 1009 2713 1453 
Q 2713 1897 2472 2187 
Q 2231 2478 1825 2478 
Q 1453 2478 1184 2204 
Q 916 1931 916 1484 
Q 916 1028 1180 706 
Q 1444 384 1844 384 
z
" transform="scale(0.015625)"/>
     </defs>
     <use xlink:href="#ArialUnicodeMS-5b"/>
     <use xlink:href="#ArialUnicodeMS-31" x="27.783203"/>
     <use xlink:href="#ArialUnicodeMS-36" x="83.398438"/>
     <use xlink:href="#ArialUnicodeMS-3a" x="139.013672"/>
     <use xlink:href="#ArialUnicodeMS-32" x="166.796875"/>
     <use xlink:href="#ArialUnicodeMS-33" x="222.412109"/>
     <use xlink:href="#ArialUnicodeMS-5d" x="278.027344"/>
    </g>
   </g>
   <g id="text_5">
    <!-- [24:31] -->
    <g style="fill: #1f2937" transform="translate(362.674003 44.85336) scale(0.075 -0.075)">
     <defs>
      <path id="ArialUnicodeMS-34" d="M 3263 1094 
L 2644 1094 
L 2644 0 
L 2081 0 
L 2081 1094 
L 97 1094 
L 97 1613 
L 2181 4581 
L 2644 4581 
L 2644 1613 
L 3263 1613 
L 3263 1094 
z
M 2081 1613 
L 2081 3681 
L 2069 3681 
L 647 1613 
L 2081 1613 
z
" transform="scale(0.015625)"/>
     </defs>
     <use xlink:href="#ArialUnicodeMS-5b"/>
     <use xlink:href="#ArialUnicodeMS-32" x="27.783203"/>
     <use xlink:href="#ArialUnicodeMS-34" x="83.398438"/>
     <use xlink:href="#ArialUnicodeMS-3a" x="139.013672"/>
     <use xlink:href="#ArialUnicodeMS-33" x="166.796875"/>
     <use xlink:href="#ArialUnicodeMS-31" x="222.412109"/>
     <use xlink:href="#ArialUnicodeMS-5d" x="278.027344"/>
    </g>
   </g>
   <g id="text_6">
    <!-- 32-bit word 的 byte 位置 -->
    <g style="fill: #1f2937" transform="translate(243.074225 32.7024) scale(0.08 -0.08)">
     <defs>
      <path id="ArialUnicodeMS-69" d="M 991 0 
L 428 0 
L 428 3316 
L 991 3316 
L 991 0 
z
M 991 3944 
L 428 3944 
L 428 4581 
L 991 4581 
L 991 3944 
z
" transform="scale(0.015625)"/>
      <path id="ArialUnicodeMS-74" d="M 1722 6 
Q 1472 -44 1300 -44 
Q 931 -44 762 86 
Q 594 216 556 416 
Q 519 616 519 972 
L 519 2881 
L 109 2881 
L 109 3316 
L 519 3316 
L 519 4141 
L 1081 4481 
L 1081 3316 
L 1644 3316 
L 1644 2881 
L 1081 2881 
L 1081 941 
Q 1081 691 1132 586 
Q 1184 481 1394 481 
Q 1516 481 1644 506 
L 1722 6 
z
" transform="scale(0.015625)"/>
      <path id="ArialUnicodeMS-77" d="M 4588 3316 
L 3547 0 
L 2963 0 
L 2438 1991 
Q 2434 1991 2371 2259 
Q 2309 2528 2309 2553 
L 2297 2553 
L 1638 0 
L 1050 0 
L 31 3316 
L 616 3316 
L 1338 691 
L 1450 1138 
L 2041 3316 
L 2619 3316 
L 3066 1578 
Q 3253 859 3272 763 
L 3284 763 
L 4038 3316 
L 4588 3316 
z
" transform="scale(0.015625)"/>
      <path id="ArialUnicodeMS-72" d="M 2216 3213 
L 2022 2694 
Q 1813 2816 1613 2816 
Q 1297 2816 1134 2533 
Q 972 2250 972 1741 
L 972 0 
L 409 0 
L 409 3316 
L 922 3316 
L 922 2816 
L 934 2816 
Q 1203 3391 1638 3391 
Q 1925 3391 2216 3213 
z
" transform="scale(0.015625)"/>
      <path id="ArialUnicodeMS-64" d="M 3109 0 
L 2584 0 
L 2584 422 
L 2572 422 
Q 2269 -78 1656 -78 
Q 1047 -78 639 405 
Q 231 888 231 1656 
Q 231 2459 615 2925 
Q 1000 3391 1631 3391 
Q 2225 3391 2534 2938 
L 2547 2938 
L 2547 4581 
L 3109 4581 
L 3109 0 
z
M 1716 384 
Q 2084 384 2340 687 
Q 2597 991 2597 1606 
Q 2597 2213 2362 2572 
Q 2128 2931 1691 2931 
Q 1253 2931 1029 2579 
Q 806 2228 806 1656 
Q 806 1244 926 958 
Q 1047 672 1262 528 
Q 1478 384 1716 384 
z
" transform="scale(0.015625)"/>
      <path id="ArialUnicodeMS-7684" d="M 5644 4281 
Q 5619 1694 5395 673 
Q 5172 -347 4606 -347 
Q 4350 -347 3609 -134 
L 3525 403 
Q 4247 134 4531 134 
Q 4806 134 4976 1142 
Q 5147 2150 5159 3841 
L 3794 3841 
Q 3550 3166 3053 2497 
L 2719 2713 
L 2719 -147 
L 2216 -147 
L 2216 269 
L 1153 269 
L 1153 -250 
L 647 -250 
L 647 4184 
L 1234 4184 
Q 1494 4644 1625 5313 
L 2088 5125 
Q 1903 4444 1741 4184 
L 2719 4184 
L 2719 2881 
Q 3431 3888 3681 5363 
L 4191 5247 
Q 4106 4869 3916 4281 
L 5644 4281 
z
M 2216 2484 
L 2216 3719 
L 1153 3719 
L 1153 2484 
L 2216 2484 
z
M 2216 738 
L 2216 2016 
L 1153 2016 
L 1153 738 
L 2216 738 
z
M 4775 1369 
L 4313 1166 
Q 4034 1925 3444 2669 
L 3841 2931 
Q 4484 2191 4775 1369 
z
" transform="scale(0.015625)"/>
      <path id="ArialUnicodeMS-79" d="M 3150 3316 
L 1881 -56 
Q 1878 -63 1875 -78 
Q 1694 -641 1451 -992 
Q 1209 -1344 763 -1344 
Q 613 -1344 397 -1281 
L 341 -750 
Q 503 -800 659 -800 
Q 972 -800 1092 -628 
Q 1213 -456 1363 -6 
L 103 3316 
L 709 3316 
L 1491 1144 
Q 1559 944 1638 628 
L 1650 628 
Q 1728 991 1850 1319 
L 2578 3316 
L 3150 3316 
z
" transform="scale(0.015625)"/>
      <path id="ArialUnicodeMS-4f4d" d="M 2234 5069 
Q 2181 4844 1950 4253 
L 1722 3681 
L 1722 -453 
L 1234 -453 
L 1234 2841 
Q 1053 2572 697 2188 
L 263 2503 
Q 1219 3441 1772 5294 
L 2234 5069 
z
M 5759 3525 
L 2194 3525 
L 2194 3988 
L 3700 3988 
L 3700 5253 
L 4197 5253 
L 4197 3988 
L 5759 3988 
L 5759 3525 
z
M 6059 -56 
L 2053 -56 
L 2053 409 
L 3781 409 
Q 4728 2066 4794 3425 
L 5306 3291 
Q 5141 1972 4325 409 
L 6059 409 
L 6059 -56 
z
M 3769 856 
L 3250 756 
Q 3222 2009 2559 3103 
L 3072 3213 
Q 3675 2153 3769 856 
z
" transform="scale(0.015625)"/>
      <path id="ArialUnicodeMS-7f6e" d="M 5844 3156 
L 3669 3156 
L 3653 2919 
L 5184 2919 
L 5184 525 
L 1863 525 
L 1863 2919 
L 3144 2919 
L 3156 3156 
L 641 3156 
L 641 3622 
L 3206 3622 
L 3231 3884 
L 934 3884 
L 934 5203 
L 5522 5203 
L 5522 3884 
L 3744 3884 
L 3719 3622 
L 5844 3622 
L 5844 3156 
z
M 5038 4353 
L 5038 4738 
L 4166 4738 
L 4166 4353 
L 5038 4353 
z
M 3681 4353 
L 3681 4738 
L 2784 4738 
L 2784 4353 
L 3681 4353 
z
M 2297 4353 
L 2297 4738 
L 1422 4738 
L 1422 4353 
L 2297 4353 
z
M 4697 2228 
L 4697 2478 
L 2363 2478 
L 2363 2228 
L 4697 2228 
z
M 4697 1588 
L 4697 1838 
L 2363 1838 
L 2363 1588 
L 4697 1588 
z
M 4697 928 
L 4697 1178 
L 2363 1178 
L 2363 928 
L 4697 928 
z
M 6047 -191 
L 1178 -191 
L 1178 -469 
L 691 -469 
L 691 2713 
L 1178 2713 
L 1178 275 
L 6047 275 
L 6047 -191 
z
" transform="scale(0.015625)"/>
     </defs>
     <use xlink:href="#ArialUnicodeMS-33"/>
     <use xlink:href="#ArialUnicodeMS-32" x="55.615234"/>
     <use xlink:href="#ArialUnicodeMS-2d" x="111.230469"/>
     <use xlink:href="#ArialUnicodeMS-62" x="144.53125"/>
     <use xlink:href="#ArialUnicodeMS-69" x="200.146484"/>
     <use xlink:href="#ArialUnicodeMS-74" x="222.363281"/>
     <use xlink:href="#ArialUnicodeMS-20" x="250.146484"/>
     <use xlink:href="#ArialUnicodeMS-77" x="277.929688"/>
     <use xlink:href="#ArialUnicodeMS-6f" x="350.146484"/>
     <use xlink:href="#ArialUnicodeMS-72" x="405.761719"/>
     <use xlink:href="#ArialUnicodeMS-64" x="439.0625"/>
     <use xlink:href="#ArialUnicodeMS-20" x="494.677734"/>
     <use xlink:href="#ArialUnicodeMS-7684" x="522.460938"/>
     <use xlink:href="#ArialUnicodeMS-20" x="622.460938"/>
     <use xlink:href="#ArialUnicodeMS-62" x="650.244141"/>
     <use xlink:href="#ArialUnicodeMS-79" x="705.859375"/>
     <use xlink:href="#ArialUnicodeMS-74" x="755.859375"/>
     <use xlink:href="#ArialUnicodeMS-65" x="783.642578"/>
     <use xlink:href="#ArialUnicodeMS-20" x="839.257812"/>
     <use xlink:href="#ArialUnicodeMS-4f4d" x="867.041016"/>
     <use xlink:href="#ArialUnicodeMS-7f6e" x="967.041016"/>
    </g>
   </g>
   <g id="text_7">
    <!-- 1X -->
    <g style="fill: #1f2937" transform="translate(138.379225 80.172694) scale(0.11 -0.11)">
     <defs>
      <path id="ArialUnicodeMS-58" d="M 4231 0 
L 3481 0 
L 2563 1300 
Q 2225 1778 2138 1941 
L 2125 1941 
Q 2125 1884 763 0 
L 31 0 
L 1806 2388 
L 238 4581 
L 959 4581 
L 1925 3213 
Q 2081 2991 2156 2841 
Q 2278 3050 3444 4581 
L 4103 4581 
L 2497 2425 
L 4231 0 
z
" transform="scale(0.015625)"/>
     </defs>
     <use xlink:href="#ArialUnicodeMS-31"/>
     <use xlink:href="#ArialUnicodeMS-58" x="55.615234"/>
    </g>
   </g>
   <g id="text_8">
    <!-- fp8 / mxfp8 -->
    <g style="fill: #1f2937" transform="translate(114.735553 102.266572) scale(0.075 -0.075)">
     <defs>
      <path id="ArialUnicodeMS-66" d="M 1991 4603 
L 1906 4109 
Q 1738 4141 1575 4141 
Q 1372 4141 1242 4055 
Q 1113 3969 1113 3628 
L 1113 3316 
L 1753 3316 
L 1753 2881 
L 1113 2881 
L 1113 0 
L 550 0 
L 550 2881 
L 50 2881 
L 50 3316 
L 550 3316 
L 550 3675 
Q 550 3925 597 4128 
Q 644 4331 845 4495 
Q 1047 4659 1466 4659 
Q 1716 4659 1991 4603 
z
" transform="scale(0.015625)"/>
      <path id="ArialUnicodeMS-70" d="M 959 2888 
Q 1275 3391 1906 3391 
Q 2559 3391 2937 2917 
Q 3316 2444 3316 1684 
Q 3316 875 2897 398 
Q 2478 -78 1869 -78 
Q 1334 -78 1013 347 
L 997 347 
L 997 -1275 
L 434 -1275 
L 434 3316 
L 947 3316 
L 947 2888 
L 959 2888 
z
M 1831 384 
Q 2225 384 2483 711 
Q 2741 1038 2741 1684 
Q 2741 2294 2492 2622 
Q 2244 2950 1856 2950 
Q 1456 2950 1198 2584 
Q 941 2219 941 1638 
Q 941 1022 1187 703 
Q 1434 384 1831 384 
z
" transform="scale(0.015625)"/>
      <path id="ArialUnicodeMS-2f" d="M 1778 4581 
L 453 -153 
L 0 -153 
L 1325 4581 
L 1778 4581 
z
" transform="scale(0.015625)"/>
      <path id="ArialUnicodeMS-6d" d="M 4922 0 
L 4359 0 
L 4359 2094 
Q 4359 2325 4328 2489 
Q 4297 2653 4167 2779 
Q 4038 2906 3763 2906 
Q 3431 2906 3190 2675 
Q 2950 2444 2950 1925 
L 2950 0 
L 2388 0 
L 2388 2156 
Q 2388 2588 2236 2747 
Q 2084 2906 1806 2906 
Q 1444 2906 1211 2656 
Q 978 2406 978 1722 
L 978 0 
L 416 0 
L 416 3316 
L 922 3316 
L 922 2853 
L 934 2853 
Q 1272 3391 1925 3391 
Q 2291 3391 2527 3245 
Q 2763 3100 2869 2809 
Q 3238 3391 3891 3391 
Q 4406 3391 4664 3112 
Q 4922 2834 4922 2278 
L 4922 0 
z
" transform="scale(0.015625)"/>
      <path id="ArialUnicodeMS-78" d="M 3156 0 
L 2463 0 
L 1600 1313 
L 728 0 
L 44 0 
L 1259 1728 
L 141 3316 
L 838 3316 
Q 1519 2288 1581 2169 
L 2394 3316 
L 3066 3316 
L 1919 1759 
L 3156 0 
z
" transform="scale(0.015625)"/>
     </defs>
     <use xlink:href="#ArialUnicodeMS-66"/>
     <use xlink:href="#ArialUnicodeMS-70" x="27.783203"/>
     <use xlink:href="#ArialUnicodeMS-38" x="83.398438"/>
     <use xlink:href="#ArialUnicodeMS-20" x="139.013672"/>
     <use xlink:href="#ArialUnicodeMS-2f" x="166.796875"/>
     <use xlink:href="#ArialUnicodeMS-20" x="194.580078"/>
     <use xlink:href="#ArialUnicodeMS-6d" x="222.363281"/>
     <use xlink:href="#ArialUnicodeMS-78" x="305.664062"/>
     <use xlink:href="#ArialUnicodeMS-66" x="355.664062"/>
     <use xlink:href="#ArialUnicodeMS-70" x="383.447266"/>
     <use xlink:href="#ArialUnicodeMS-38" x="439.0625"/>
    </g>
   </g>
   <g id="text_9">
    <!-- SF0 -->
    <g style="fill: #ffffff" transform="translate(189.113822 79.656131) scale(0.09 -0.09)">
     <defs>
      <path id="ArialUnicodeMS-53" d="M 3213 3238 
Q 3175 3675 2897 3895 
Q 2619 4116 2100 4116 
Q 1631 4116 1337 3941 
Q 1044 3766 1044 3431 
Q 1044 3134 1270 2989 
Q 1497 2844 2138 2700 
Q 2706 2575 3065 2444 
Q 3425 2313 3681 2036 
Q 3938 1759 3938 1294 
Q 3938 703 3467 312 
Q 2997 -78 2241 -78 
Q 1275 -78 795 353 
Q 316 784 288 1472 
L 863 1522 
Q 903 972 1287 720 
Q 1672 469 2216 469 
Q 2725 469 3039 678 
Q 3353 888 3353 1247 
Q 3353 1622 3025 1794 
Q 2697 1966 1923 2133 
Q 1150 2300 809 2603 
Q 469 2906 469 3391 
Q 469 3941 900 4300 
Q 1331 4659 2075 4659 
Q 2838 4659 3302 4301 
Q 3766 3944 3794 3284 
L 3213 3238 
z
" transform="scale(0.015625)"/>
      <path id="ArialUnicodeMS-46" d="M 3603 4038 
L 1119 4038 
L 1119 2619 
L 3272 2619 
L 3272 2075 
L 1119 2075 
L 1119 0 
L 513 0 
L 513 4581 
L 3603 4581 
L 3603 4038 
z
" transform="scale(0.015625)"/>
     </defs>
     <use xlink:href="#ArialUnicodeMS-53"/>
     <use xlink:href="#ArialUnicodeMS-46" x="66.699219"/>
     <use xlink:href="#ArialUnicodeMS-30" x="127.783203"/>
    </g>
   </g>
   <g id="text_10">
    <!-- SF0 -->
    <g style="fill: #ffffff" transform="translate(248.038622 79.656131) scale(0.09 -0.09)">
     <use xlink:href="#ArialUnicodeMS-53"/>
     <use xlink:href="#ArialUnicodeMS-46" x="66.699219"/>
     <use xlink:href="#ArialUnicodeMS-30" x="127.783203"/>
    </g>
   </g>
   <g id="text_11">
    <!-- SF0 -->
    <g style="fill: #ffffff" transform="translate(306.963422 79.656131) scale(0.09 -0.09)">
     <use xlink:href="#ArialUnicodeMS-53"/>
     <use xlink:href="#ArialUnicodeMS-46" x="66.699219"/>
     <use xlink:href="#ArialUnicodeMS-30" x="127.783203"/>
    </g>
   </g>
   <g id="text_12">
    <!-- SF0 -->
    <g style="fill: #ffffff" transform="translate(365.888222 79.656131) scale(0.09 -0.09)">
     <use xlink:href="#ArialUnicodeMS-53"/>
     <use xlink:href="#ArialUnicodeMS-46" x="66.699219"/>
     <use xlink:href="#ArialUnicodeMS-30" x="127.783203"/>
    </g>
   </g>
   <g id="text_13">
    <!-- 一个缩放因子，广播 ×4（SF_VEC = 32） -->
    <g style="fill: #1f2937" transform="translate(419.6736 79.8591) scale(0.08 -0.08)">
     <defs>
      <path id="ArialUnicodeMS-ff0c" d="M 3544 0 
Q 3544 -397 3392 -606 
Q 3241 -816 3019 -903 
L 2866 -666 
Q 3216 -516 3219 0 
L 2903 0 
L 2903 641 
L 3544 641 
L 3544 0 
z
" transform="scale(0.015625)"/>
      <path id="ArialUnicodeMS-5e7f" d="M 5813 3872 
L 1691 3872 
L 1691 2988 
Q 1691 1959 1633 1448 
Q 1575 938 1378 484 
Q 1181 31 678 -391 
L 313 -56 
Q 1222 534 1222 2222 
L 1222 4341 
L 3256 4341 
L 3256 5269 
L 3731 5269 
L 3731 4341 
L 5813 4341 
L 5813 3872 
z
" transform="scale(0.015625)"/>
      <path id="ArialUnicodeMS-64ad" d="M 6216 2194 
L 5869 1813 
Q 5753 1856 5484 2053 
L 5484 -428 
L 5031 -428 
L 5031 -19 
L 3072 -19 
L 3072 -428 
L 2584 -428 
L 2584 1991 
L 2144 1759 
L 1856 2175 
Q 2847 2531 3309 3225 
L 2150 3225 
L 2150 3694 
L 3034 3694 
Q 2866 4050 2503 4294 
L 2803 4481 
L 2472 4453 
L 2247 4903 
Q 4188 4913 5428 5306 
L 5825 4972 
Q 5200 4725 4256 4609 
L 4256 3694 
L 5888 3694 
L 5888 3225 
L 4916 3225 
Q 5291 2638 6216 2194 
z
M 3769 3694 
L 3769 4544 
Q 3494 4503 2988 4494 
Q 3278 4241 3494 3809 
L 3181 3681 
L 3769 3694 
z
M 5338 2175 
Q 4784 2503 4384 3225 
L 4256 3225 
L 4256 2259 
L 3769 2259 
L 3769 3097 
L 3750 3097 
Q 3481 2553 2881 2181 
L 2881 2175 
L 5338 2175 
z
M 5031 1300 
L 5031 1709 
L 4281 1709 
L 4281 1300 
L 5031 1300 
z
M 3794 1300 
L 3794 1709 
L 3072 1709 
L 3072 1300 
L 3794 1300 
z
M 5031 447 
L 5031 856 
L 4281 856 
L 4281 447 
L 5031 447 
z
M 3794 447 
L 3794 856 
L 3072 856 
L 3072 447 
L 3794 447 
z
M 2259 2484 
L 1631 2169 
L 1631 50 
Q 1631 -444 903 -444 
Q 753 -444 634 -434 
L 453 50 
Q 728 19 903 19 
Q 1059 19 1103 51 
Q 1147 84 1147 244 
L 1147 1984 
Q 813 1800 500 1672 
L 184 2069 
Q 763 2297 1147 2491 
L 1147 3713 
L 378 3713 
L 378 4178 
L 1147 4178 
L 1147 5281 
L 1631 5281 
L 1631 4178 
L 2259 4178 
L 2259 3713 
L 1631 3713 
L 1631 2694 
L 2259 2988 
L 2259 2484 
z
M 5459 4391 
Q 5284 3984 4916 3719 
L 4531 3928 
Q 4919 4259 5088 4628 
L 5459 4391 
z
" transform="scale(0.015625)"/>
      <path id="ArialUnicodeMS-d7" d="M 3231 1288 
L 2853 903 
L 1869 1888 
L 884 903 
L 506 1281 
L 1491 2259 
L 513 3244 
L 891 3628 
L 1875 2644 
L 2853 3622 
L 3225 3244 
L 2253 2266 
L 3231 1288 
z
" transform="scale(0.015625)"/>
      <path id="ArialUnicodeMS-ff08" d="M 3964 -1344 
L 3561 -1344 
Q 3042 -681 2745 103 
Q 2448 888 2448 1656 
Q 2448 2528 2764 3275 
Q 3080 4022 3561 4659 
L 3964 4659 
Q 3408 3747 3219 3059 
Q 3030 2372 3030 1663 
Q 3030 153 3964 -1344 
z
" transform="scale(0.015625)"/>
      <path id="ArialUnicodeMS-56" d="M 4225 4581 
L 2431 0 
L 1813 0 
L 38 4581 
L 691 4581 
L 1881 1253 
Q 2016 934 2119 506 
L 2131 506 
Q 2225 872 2369 1253 
L 3609 4581 
L 4225 4581 
z
" transform="scale(0.015625)"/>
      <path id="ArialUnicodeMS-43" d="M 4372 1453 
Q 4172 681 3673 301 
Q 3175 -78 2478 -78 
Q 1353 -78 839 626 
Q 325 1331 325 2322 
Q 325 3419 929 4039 
Q 1534 4659 2484 4659 
Q 3153 4659 3628 4318 
Q 4103 3978 4294 3322 
L 3700 3181 
Q 3550 3659 3244 3900 
Q 2938 4141 2478 4141 
Q 1728 4141 1340 3648 
Q 953 3156 953 2328 
Q 953 1372 1361 906 
Q 1769 441 2425 441 
Q 2963 441 3298 731 
Q 3634 1022 3769 1606 
L 4372 1453 
z
" transform="scale(0.015625)"/>
      <path id="ArialUnicodeMS-3d" d="M 3384 2694 
L 353 2694 
L 353 3219 
L 3384 3219 
L 3384 2694 
z
M 3384 1300 
L 353 1300 
L 353 1825 
L 3384 1825 
L 3384 1300 
z
" transform="scale(0.015625)"/>
      <path id="ArialUnicodeMS-ff09" d="M 2850 4659 
Q 3369 3997 3666 3212 
Q 3963 2428 3963 1656 
Q 3963 788 3647 41 
Q 3332 -706 2850 -1344 
L 2447 -1344 
Q 3004 -431 3193 255 
Q 3382 941 3382 1650 
Q 3382 3163 2447 4659 
L 2850 4659 
z
" transform="scale(0.015625)"/>
     </defs>
     <use xlink:href="#ArialUnicodeMS-4e00"/>
     <use xlink:href="#ArialUnicodeMS-4e2a" x="100"/>
     <use xlink:href="#ArialUnicodeMS-7f29" x="200"/>
     <use xlink:href="#ArialUnicodeMS-653e" x="300"/>
     <use xlink:href="#ArialUnicodeMS-56e0" x="400"/>
     <use xlink:href="#ArialUnicodeMS-5b50" x="500"/>
     <use xlink:href="#ArialUnicodeMS-ff0c" x="600"/>
     <use xlink:href="#ArialUnicodeMS-5e7f" x="700"/>
     <use xlink:href="#ArialUnicodeMS-64ad" x="800"/>
     <use xlink:href="#ArialUnicodeMS-20" x="900"/>
     <use xlink:href="#ArialUnicodeMS-d7" x="927.783203"/>
     <use xlink:href="#ArialUnicodeMS-34" x="986.181641"/>
     <use xlink:href="#ArialUnicodeMS-ff08" x="1041.796875"/>
     <use xlink:href="#ArialUnicodeMS-53" x="1141.796875"/>
     <use xlink:href="#ArialUnicodeMS-46" x="1208.496094"/>
     <use xlink:href="#ArialUnicodeMS-5f" x="1269.580078"/>
     <use xlink:href="#ArialUnicodeMS-56" x="1319.580078"/>
     <use xlink:href="#ArialUnicodeMS-45" x="1386.279297"/>
     <use xlink:href="#ArialUnicodeMS-43" x="1452.978516"/>
     <use xlink:href="#ArialUnicodeMS-20" x="1525.195312"/>
     <use xlink:href="#ArialUnicodeMS-3d" x="1552.978516"/>
     <use xlink:href="#ArialUnicodeMS-20" x="1611.376953"/>
     <use xlink:href="#ArialUnicodeMS-33" x="1639.160156"/>
     <use xlink:href="#ArialUnicodeMS-32" x="1694.775391"/>
     <use xlink:href="#ArialUnicodeMS-ff09" x="1750.390625"/>
    </g>
   </g>
   <g id="text_14">
    <!-- 2X -->
    <g style="fill: #1f2937" transform="translate(138.379225 131.177494) scale(0.11 -0.11)">
     <use xlink:href="#ArialUnicodeMS-32"/>
     <use xlink:href="#ArialUnicodeMS-58" x="55.615234"/>
    </g>
   </g>
   <g id="text_15">
    <!-- mxfp4 -->
    <g style="fill: #1f2937" transform="translate(131.411334 153.271372) scale(0.075 -0.075)">
     <use xlink:href="#ArialUnicodeMS-6d"/>
     <use xlink:href="#ArialUnicodeMS-78" x="83.300781"/>
     <use xlink:href="#ArialUnicodeMS-66" x="133.300781"/>
     <use xlink:href="#ArialUnicodeMS-70" x="161.083984"/>
     <use xlink:href="#ArialUnicodeMS-34" x="216.699219"/>
    </g>
   </g>
   <g id="text_16">
    <!-- SF0 -->
    <g style="fill: #ffffff" transform="translate(189.113822 130.660931) scale(0.09 -0.09)">
     <use xlink:href="#ArialUnicodeMS-53"/>
     <use xlink:href="#ArialUnicodeMS-46" x="66.699219"/>
     <use xlink:href="#ArialUnicodeMS-30" x="127.783203"/>
    </g>
   </g>
   <g id="text_17">
    <!-- SF1 -->
    <g style="fill: #ffffff" transform="translate(248.038622 130.660931) scale(0.09 -0.09)">
     <use xlink:href="#ArialUnicodeMS-53"/>
     <use xlink:href="#ArialUnicodeMS-46" x="66.699219"/>
     <use xlink:href="#ArialUnicodeMS-31" x="127.783203"/>
    </g>
   </g>
   <g id="text_18">
    <!-- SF0 -->
    <g style="fill: #ffffff" transform="translate(306.963422 130.660931) scale(0.09 -0.09)">
     <use xlink:href="#ArialUnicodeMS-53"/>
     <use xlink:href="#ArialUnicodeMS-46" x="66.699219"/>
     <use xlink:href="#ArialUnicodeMS-30" x="127.783203"/>
    </g>
   </g>
   <g id="text_19">
    <!-- SF1 -->
    <g style="fill: #ffffff" transform="translate(365.888222 130.660931) scale(0.09 -0.09)">
     <use xlink:href="#ArialUnicodeMS-53"/>
     <use xlink:href="#ArialUnicodeMS-46" x="66.699219"/>
     <use xlink:href="#ArialUnicodeMS-31" x="127.783203"/>
    </g>
   </g>
   <g id="text_20">
    <!-- 两个缩放因子，各复制 ×2（SF_VEC = 32） -->
    <g style="fill: #1f2937" transform="translate(419.6736 130.8639) scale(0.08 -0.08)">
     <defs>
      <path id="ArialUnicodeMS-4e24" d="M 5831 4525 
L 4091 4525 
L 4091 3706 
L 5472 3706 
L 5472 122 
Q 5472 -88 5315 -213 
Q 5159 -338 4866 -338 
Q 4722 -338 4459 -306 
L 4294 159 
Q 4644 106 4844 106 
Q 5013 106 5013 238 
L 5013 3263 
L 4063 3263 
L 4019 2747 
Q 4647 2319 4953 1797 
L 4569 1447 
Q 4322 1950 3944 2272 
Q 3663 1159 2975 494 
L 2572 813 
Q 3581 1788 3616 3263 
L 2713 3263 
L 2650 2766 
Q 3050 2519 3347 2119 
L 3009 1772 
Q 2784 2128 2572 2266 
Q 2313 1238 1663 666 
L 1300 984 
Q 2144 1728 2209 3263 
L 1247 3263 
L 1247 -391 
L 763 -391 
L 763 3706 
L 2216 3706 
L 2216 4525 
L 397 4525 
L 397 4991 
L 5831 4991 
L 5831 4525 
z
M 3628 3706 
L 3628 4525 
L 2700 4525 
L 2700 3706 
L 3628 3706 
z
" transform="scale(0.015625)"/>
      <path id="ArialUnicodeMS-5404" d="M 6088 2247 
L 5797 1772 
Q 4028 2241 3238 2753 
Q 2069 2156 666 1791 
L 366 2222 
Q 1991 2641 2797 3059 
Q 2259 3491 1953 3963 
Q 1500 3394 1019 3072 
L 594 3397 
Q 1075 3650 1547 4219 
Q 2019 4788 2272 5350 
L 2753 5222 
Q 2666 4966 2491 4728 
L 4916 4728 
L 4916 4313 
Q 4403 3541 3700 3047 
Q 4050 2813 4815 2561 
Q 5581 2309 6088 2247 
z
M 4288 4263 
L 2344 4263 
Q 2656 3803 3244 3309 
Q 3941 3797 4288 4263 
z
M 4788 -403 
L 4281 -403 
L 4281 -31 
L 2181 -31 
L 2181 -416 
L 1678 -416 
L 1678 2009 
L 4788 2009 
L 4788 -403 
z
M 4281 434 
L 4281 1544 
L 2181 1544 
L 2181 434 
L 4281 434 
z
" transform="scale(0.015625)"/>
      <path id="ArialUnicodeMS-590d" d="M 6106 84 
L 5819 -391 
Q 4316 -269 3419 72 
Q 2341 -347 659 -416 
L 353 103 
Q 1988 91 2859 372 
Q 2338 700 2075 966 
Q 1744 719 1369 525 
L 1025 884 
Q 2088 1463 2291 1991 
L 1581 1991 
L 1581 3609 
Q 963 3019 763 2900 
L 359 3219 
Q 1472 3894 1931 5306 
L 2375 5113 
Q 2341 4950 2209 4684 
L 5691 4684 
L 5684 4219 
L 1978 4219 
Q 1947 4178 1883 4068 
Q 1819 3959 1784 3916 
L 5050 3916 
L 5050 1991 
L 2656 1991 
L 2656 1978 
L 2822 1875 
L 2663 1650 
L 5056 1650 
L 5056 1209 
Q 4731 819 4025 372 
Q 4581 163 6106 84 
z
M 4550 3200 
L 4550 3463 
L 2075 3463 
L 2075 3200 
L 4550 3200 
z
M 4550 2463 
L 4550 2731 
L 2075 2731 
L 2075 2463 
L 4550 2463 
z
M 4325 1184 
L 2516 1184 
Q 2953 794 3438 609 
Q 4066 931 4325 1184 
z
" transform="scale(0.015625)"/>
      <path id="ArialUnicodeMS-5236" d="M 4184 2766 
L 2638 2766 
L 2638 2203 
L 3988 2203 
L 3988 775 
Q 3959 578 3812 459 
Q 3666 341 3477 333 
Q 3288 325 3003 325 
L 2841 806 
L 3366 781 
Q 3500 819 3500 891 
L 3500 1734 
L 2638 1734 
L 2638 -434 
L 2150 -434 
L 2150 1734 
L 1344 1734 
L 1344 263 
L 856 263 
L 856 2203 
L 2150 2203 
L 2150 2766 
L 494 2766 
L 494 3231 
L 2150 3231 
L 2150 3897 
L 1428 3897 
Q 1163 3428 1044 3309 
L 603 3531 
Q 1059 4038 1319 5050 
L 1741 4884 
Q 1722 4716 1606 4341 
L 2150 4341 
L 2150 5350 
L 2638 5350 
L 2638 4341 
L 3841 4341 
L 3841 3897 
L 2638 3897 
L 2638 3231 
L 4184 3231 
L 4184 2766 
z
M 5850 213 
Q 5850 -81 5719 -234 
Q 5588 -388 5228 -397 
L 4653 -409 
L 4488 84 
Q 4997 38 5106 38 
Q 5363 38 5363 231 
L 5363 5306 
L 5850 5306 
L 5850 213 
z
M 4863 909 
L 4378 909 
L 4378 4513 
L 4863 4513 
L 4863 909 
z
" transform="scale(0.015625)"/>
     </defs>
     <use xlink:href="#ArialUnicodeMS-4e24"/>
     <use xlink:href="#ArialUnicodeMS-4e2a" x="100"/>
     <use xlink:href="#ArialUnicodeMS-7f29" x="200"/>
     <use xlink:href="#ArialUnicodeMS-653e" x="300"/>
     <use xlink:href="#ArialUnicodeMS-56e0" x="400"/>
     <use xlink:href="#ArialUnicodeMS-5b50" x="500"/>
     <use xlink:href="#ArialUnicodeMS-ff0c" x="600"/>
     <use xlink:href="#ArialUnicodeMS-5404" x="700"/>
     <use xlink:href="#ArialUnicodeMS-590d" x="800"/>
     <use xlink:href="#ArialUnicodeMS-5236" x="900"/>
     <use xlink:href="#ArialUnicodeMS-20" x="1000"/>
     <use xlink:href="#ArialUnicodeMS-d7" x="1027.783203"/>
     <use xlink:href="#ArialUnicodeMS-32" x="1086.181641"/>
     <use xlink:href="#ArialUnicodeMS-ff08" x="1141.796875"/>
     <use xlink:href="#ArialUnicodeMS-53" x="1241.796875"/>
     <use xlink:href="#ArialUnicodeMS-46" x="1308.496094"/>
     <use xlink:href="#ArialUnicodeMS-5f" x="1369.580078"/>
     <use xlink:href="#ArialUnicodeMS-56" x="1419.580078"/>
     <use xlink:href="#ArialUnicodeMS-45" x="1486.279297"/>
     <use xlink:href="#ArialUnicodeMS-43" x="1552.978516"/>
     <use xlink:href="#ArialUnicodeMS-20" x="1625.195312"/>
     <use xlink:href="#ArialUnicodeMS-3d" x="1652.978516"/>
     <use xlink:href="#ArialUnicodeMS-20" x="1711.376953"/>
     <use xlink:href="#ArialUnicodeMS-33" x="1739.160156"/>
     <use xlink:href="#ArialUnicodeMS-32" x="1794.775391"/>
     <use xlink:href="#ArialUnicodeMS-ff09" x="1850.390625"/>
    </g>
   </g>
   <g id="text_21">
    <!-- 4X -->
    <g style="fill: #1f2937" transform="translate(138.379225 182.182294) scale(0.11 -0.11)">
     <use xlink:href="#ArialUnicodeMS-34"/>
     <use xlink:href="#ArialUnicodeMS-58" x="55.615234"/>
    </g>
   </g>
   <g id="text_22">
    <!-- nvfp4 -->
    <g style="fill: #1f2937" transform="translate(133.487897 204.276172) scale(0.075 -0.075)">
     <defs>
      <path id="ArialUnicodeMS-6e" d="M 3138 0 
L 2572 0 
L 2572 2016 
Q 2572 2525 2389 2715 
Q 2206 2906 1881 2906 
Q 1631 2906 1407 2784 
Q 1184 2663 1090 2441 
Q 997 2219 997 1813 
L 997 0 
L 434 0 
L 434 3316 
L 941 3316 
L 941 2847 
L 953 2847 
Q 1131 3119 1392 3255 
Q 1653 3391 1997 3391 
Q 2259 3391 2515 3297 
Q 2772 3203 2917 3015 
Q 3063 2828 3100 2615 
Q 3138 2403 3138 2041 
L 3138 0 
z
" transform="scale(0.015625)"/>
     </defs>
     <use xlink:href="#ArialUnicodeMS-6e"/>
     <use xlink:href="#ArialUnicodeMS-76" x="55.615234"/>
     <use xlink:href="#ArialUnicodeMS-66" x="105.615234"/>
     <use xlink:href="#ArialUnicodeMS-70" x="133.398438"/>
     <use xlink:href="#ArialUnicodeMS-34" x="189.013672"/>
    </g>
   </g>
   <g id="text_23">
    <!-- SF0 -->
    <g style="fill: #ffffff" transform="translate(189.113822 181.665731) scale(0.09 -0.09)">
     <use xlink:href="#ArialUnicodeMS-53"/>
     <use xlink:href="#ArialUnicodeMS-46" x="66.699219"/>
     <use xlink:href="#ArialUnicodeMS-30" x="127.783203"/>
    </g>
   </g>
   <g id="text_24">
    <!-- SF1 -->
    <g style="fill: #ffffff" transform="translate(248.038622 181.665731) scale(0.09 -0.09)">
     <use xlink:href="#ArialUnicodeMS-53"/>
     <use xlink:href="#ArialUnicodeMS-46" x="66.699219"/>
     <use xlink:href="#ArialUnicodeMS-31" x="127.783203"/>
    </g>
   </g>
   <g id="text_25">
    <!-- SF2 -->
    <g style="fill: #ffffff" transform="translate(306.963422 181.665731) scale(0.09 -0.09)">
     <use xlink:href="#ArialUnicodeMS-53"/>
     <use xlink:href="#ArialUnicodeMS-46" x="66.699219"/>
     <use xlink:href="#ArialUnicodeMS-32" x="127.783203"/>
    </g>
   </g>
   <g id="text_26">
    <!-- SF3 -->
    <g style="fill: #ffffff" transform="translate(365.888222 181.665731) scale(0.09 -0.09)">
     <use xlink:href="#ArialUnicodeMS-53"/>
     <use xlink:href="#ArialUnicodeMS-46" x="66.699219"/>
     <use xlink:href="#ArialUnicodeMS-33" x="127.783203"/>
    </g>
   </g>
   <g id="text_27">
    <!-- 四个缩放因子 = 四个 K-block（SF_VEC = 16） -->
    <g style="fill: #1f2937" transform="translate(419.6736 181.8687) scale(0.08 -0.08)">
     <defs>
      <path id="ArialUnicodeMS-56db" d="M 5625 -206 
L 5100 -206 
L 5100 331 
L 1306 331 
L 1306 -225 
L 775 -225 
L 775 4763 
L 5625 4763 
L 5625 -206 
z
M 5100 800 
L 5100 4275 
L 4044 4275 
L 4044 2316 
Q 4044 2138 4219 2138 
L 4378 2138 
Q 4513 2138 4525 2241 
L 4588 2713 
L 5081 2528 
Q 5044 2119 4881 1884 
Q 4719 1650 4500 1650 
L 4056 1650 
Q 3819 1650 3692 1784 
Q 3566 1919 3566 2131 
L 3566 4275 
L 2747 4275 
L 2747 3513 
Q 2747 1956 1613 1306 
L 1300 1581 
L 1300 800 
L 5100 800 
z
M 2234 3481 
L 2234 4275 
L 1300 4275 
L 1300 1709 
Q 2234 2178 2234 3481 
z
" transform="scale(0.015625)"/>
     </defs>
     <use xlink:href="#ArialUnicodeMS-56db"/>
     <use xlink:href="#ArialUnicodeMS-4e2a" x="100"/>
     <use xlink:href="#ArialUnicodeMS-7f29" x="200"/>
     <use xlink:href="#ArialUnicodeMS-653e" x="300"/>
     <use xlink:href="#ArialUnicodeMS-56e0" x="400"/>
     <use xlink:href="#ArialUnicodeMS-5b50" x="500"/>
     <use xlink:href="#ArialUnicodeMS-20" x="600"/>
     <use xlink:href="#ArialUnicodeMS-3d" x="627.783203"/>
     <use xlink:href="#ArialUnicodeMS-20" x="686.181641"/>
     <use xlink:href="#ArialUnicodeMS-56db" x="713.964844"/>
     <use xlink:href="#ArialUnicodeMS-4e2a" x="813.964844"/>
     <use xlink:href="#ArialUnicodeMS-20" x="913.964844"/>
     <use xlink:href="#ArialUnicodeMS-4b" x="941.748047"/>
     <use xlink:href="#ArialUnicodeMS-2d" x="1008.447266"/>
     <use xlink:href="#ArialUnicodeMS-62" x="1041.748047"/>
     <use xlink:href="#ArialUnicodeMS-6c" x="1097.363281"/>
     <use xlink:href="#ArialUnicodeMS-6f" x="1119.580078"/>
     <use xlink:href="#ArialUnicodeMS-63" x="1175.195312"/>
     <use xlink:href="#ArialUnicodeMS-6b" x="1225.195312"/>
     <use xlink:href="#ArialUnicodeMS-ff08" x="1275.195312"/>
     <use xlink:href="#ArialUnicodeMS-53" x="1375.195312"/>
     <use xlink:href="#ArialUnicodeMS-46" x="1441.894531"/>
     <use xlink:href="#ArialUnicodeMS-5f" x="1502.978516"/>
     <use xlink:href="#ArialUnicodeMS-56" x="1552.978516"/>
     <use xlink:href="#ArialUnicodeMS-45" x="1619.677734"/>
     <use xlink:href="#ArialUnicodeMS-43" x="1686.376953"/>
     <use xlink:href="#ArialUnicodeMS-20" x="1758.59375"/>
     <use xlink:href="#ArialUnicodeMS-3d" x="1786.376953"/>
     <use xlink:href="#ArialUnicodeMS-20" x="1844.775391"/>
     <use xlink:href="#ArialUnicodeMS-31" x="1872.558594"/>
     <use xlink:href="#ArialUnicodeMS-36" x="1928.173828"/>
     <use xlink:href="#ArialUnicodeMS-ff09" x="1983.789062"/>
    </g>
   </g>
   <g id="text_28">
    <!-- SFk = 某个 M-row 的 K-block k 对应缩放因子。sf_per_mma（“×N”）= mma_k / SF_VEC：fp8 为 1，mxfp4 为 2，nvfp4 为 4。 -->
    <g style="fill: #1f2937" transform="translate(62.312437 239.27184) scale(0.076 -0.076)">
     <defs>
      <path id="ArialUnicodeMS-67d0" d="M 6119 434 
L 5844 13 
Q 4269 378 3469 1294 
L 3469 -441 
L 2963 -441 
L 2963 1275 
Q 2181 500 575 19 
L 281 434 
Q 1409 709 2375 1375 
L 594 1375 
L 594 1850 
L 2963 1850 
L 2963 2247 
L 1650 2247 
L 1650 4231 
L 659 4231 
L 659 4697 
L 1644 4697 
L 1644 5319 
L 2131 5319 
L 2131 4697 
L 4244 4697 
L 4244 5344 
L 4728 5344 
L 4728 4697 
L 5753 4697 
L 5753 4231 
L 4738 4231 
L 4738 2247 
L 3463 2247 
L 3463 1850 
L 5797 1850 
L 5797 1381 
L 4038 1381 
Q 4947 606 6119 434 
z
M 4250 4231 
L 2131 4231 
L 2131 3706 
L 4244 3706 
L 4250 4231 
z
M 4250 2713 
L 4250 3238 
L 2131 3238 
L 2131 2713 
L 4250 2713 
z
" transform="scale(0.015625)"/>
      <path id="ArialUnicodeMS-5bf9" d="M 5856 3616 
L 5247 3616 
L 5247 38 
Q 5206 -163 5042 -273 
Q 4878 -384 4806 -384 
L 4103 -384 
L 3944 103 
Q 4438 63 4678 63 
Q 4716 63 4763 134 
L 4763 3616 
L 2988 3616 
L 2988 4084 
L 4763 4084 
L 4763 5306 
L 5247 5306 
L 5247 4084 
L 5856 4084 
L 5856 3616 
z
M 3175 366 
L 2694 153 
Q 2422 1059 2100 1538 
Q 1609 353 525 -384 
L 153 -13 
Q 1288 719 1813 1984 
Q 1306 2706 628 3256 
L 984 3541 
Q 1794 2828 2009 2497 
Q 2341 3403 2381 4116 
L 359 4116 
L 359 4556 
L 2869 4556 
Q 2844 3303 2328 2028 
Q 2866 1222 3175 366 
z
M 4441 1453 
L 3988 1178 
Q 3663 2072 3091 2700 
L 3444 2950 
Q 4084 2334 4441 1453 
z
" transform="scale(0.015625)"/>
      <path id="ArialUnicodeMS-5e94" d="M 5919 3944 
L 1638 3944 
L 1609 2359 
Q 1591 1578 1503 1148 
Q 1416 719 1222 373 
Q 1028 28 672 -378 
L 294 -38 
Q 678 297 870 739 
Q 1063 1181 1117 1853 
Q 1172 2525 1159 4384 
L 3494 4384 
Q 3366 4666 2869 5019 
L 3206 5338 
Q 3713 5059 4025 4556 
L 3859 4384 
L 5919 4384 
L 5919 3944 
z
M 4128 1434 
L 3653 1203 
Q 3516 2316 2853 3353 
L 3256 3566 
Q 3959 2628 4128 1434 
z
M 5941 -122 
L 1422 -122 
L 1422 347 
L 4122 347 
Q 4881 1628 5069 3413 
L 5528 3250 
Q 5356 1466 4666 347 
L 5941 347 
L 5941 -122 
z
M 3181 884 
L 2713 609 
Q 2488 1816 1716 2822 
L 2150 3028 
Q 2941 2034 3181 884 
z
" transform="scale(0.015625)"/>
      <path id="ArialUnicodeMS-3002" d="M 1466 1503 
Q 1847 1503 2117 1231 
Q 2388 959 2388 575 
Q 2388 194 2119 -76 
Q 1850 -347 1472 -347 
Q 1091 -347 820 -76 
Q 550 194 550 575 
Q 550 959 819 1231 
Q 1088 1503 1466 1503 
z
M 1469 44 
Q 1691 44 1845 201 
Q 2000 359 2000 581 
Q 2000 803 1844 958 
Q 1688 1113 1469 1113 
Q 1250 1113 1094 958 
Q 938 803 938 581 
Q 938 359 1092 201 
Q 1247 44 1469 44 
z
" transform="scale(0.015625)"/>
      <path id="ArialUnicodeMS-201c" d="M 1900 4441 
Q 1559 4303 1556 3816 
L 1850 3816 
L 1850 3163 
L 1247 3163 
L 1247 3675 
Q 1247 3897 1273 4061 
Q 1300 4225 1412 4389 
Q 1525 4553 1759 4659 
L 1900 4441 
z
M 928 4441 
Q 588 4303 581 3816 
L 878 3816 
L 878 3163 
L 275 3163 
L 275 3675 
Q 275 3897 301 4061 
Q 328 4225 439 4389 
Q 550 4553 788 4659 
L 928 4441 
z
" transform="scale(0.015625)"/>
      <path id="ArialUnicodeMS-4e" d="M 4109 0 
L 3488 0 
L 1094 3597 
L 1081 3597 
L 1081 0 
L 506 0 
L 506 4581 
L 1125 4581 
L 3519 984 
L 3531 984 
L 3531 4581 
L 4109 4581 
L 4109 0 
z
" transform="scale(0.015625)"/>
      <path id="ArialUnicodeMS-201d" d="M 1856 4072 
Q 1856 3847 1829 3683 
Q 1803 3519 1692 3355 
Q 1581 3191 1344 3084 
L 1203 3303 
Q 1544 3441 1550 3928 
L 1253 3928 
L 1253 4581 
L 1856 4581 
L 1856 4072 
z
M 884 4072 
Q 884 3847 857 3683 
Q 831 3519 718 3355 
Q 606 3191 372 3084 
L 231 3303 
Q 572 3441 575 3928 
L 281 3928 
L 281 4581 
L 884 4581 
L 884 4072 
z
" transform="scale(0.015625)"/>
      <path id="ArialUnicodeMS-4e3a" d="M 5350 3828 
L 5306 2566 
Q 5281 1881 5236 1293 
Q 5191 706 5117 340 
Q 5044 -25 4945 -145 
Q 4847 -266 4720 -327 
Q 4594 -388 4428 -388 
Q 4206 -388 3700 -275 
L 3622 225 
Q 3725 206 3978 145 
Q 4231 84 4384 84 
Q 4459 84 4545 143 
Q 4631 203 4731 1045 
Q 4831 1888 4863 3359 
L 3181 3359 
Q 3169 2088 2673 1128 
Q 2178 169 953 -416 
L 622 13 
Q 1219 216 1762 723 
Q 2306 1231 2511 2029 
Q 2716 2828 2694 3359 
L 525 3359 
L 525 3828 
L 2694 3828 
L 2694 5294 
Q 3047 5306 3181 5306 
L 3181 3828 
L 5350 3828 
z
M 2284 4231 
L 1869 3903 
Q 1706 4347 1056 4781 
L 1453 5081 
Q 2041 4650 2284 4231 
z
M 4500 1350 
L 4063 1081 
Q 3913 1684 3219 2419 
L 3622 2656 
Q 4219 2072 4500 1350 
z
" transform="scale(0.015625)"/>
     </defs>
     <use xlink:href="#ArialUnicodeMS-53"/>
     <use xlink:href="#ArialUnicodeMS-46" x="66.699219"/>
     <use xlink:href="#ArialUnicodeMS-6b" x="127.783203"/>
     <use xlink:href="#ArialUnicodeMS-20" x="177.783203"/>
     <use xlink:href="#ArialUnicodeMS-3d" x="205.566406"/>
     <use xlink:href="#ArialUnicodeMS-20" x="263.964844"/>
     <use xlink:href="#ArialUnicodeMS-67d0" x="291.748047"/>
     <use xlink:href="#ArialUnicodeMS-4e2a" x="391.748047"/>
     <use xlink:href="#ArialUnicodeMS-20" x="491.748047"/>
     <use xlink:href="#ArialUnicodeMS-4d" x="519.53125"/>
     <use xlink:href="#ArialUnicodeMS-2d" x="602.832031"/>
     <use xlink:href="#ArialUnicodeMS-72" x="636.132812"/>
     <use xlink:href="#ArialUnicodeMS-6f" x="669.433594"/>
     <use xlink:href="#ArialUnicodeMS-77" x="725.048828"/>
     <use xlink:href="#ArialUnicodeMS-20" x="797.265625"/>
     <use xlink:href="#ArialUnicodeMS-7684" x="825.048828"/>
     <use xlink:href="#ArialUnicodeMS-20" x="925.048828"/>
     <use xlink:href="#ArialUnicodeMS-4b" x="952.832031"/>
     <use xlink:href="#ArialUnicodeMS-2d" x="1019.53125"/>
     <use xlink:href="#ArialUnicodeMS-62" x="1052.832031"/>
     <use xlink:href="#ArialUnicodeMS-6c" x="1108.447266"/>
     <use xlink:href="#ArialUnicodeMS-6f" x="1130.664062"/>
     <use xlink:href="#ArialUnicodeMS-63" x="1186.279297"/>
     <use xlink:href="#ArialUnicodeMS-6b" x="1236.279297"/>
     <use xlink:href="#ArialUnicodeMS-20" x="1286.279297"/>
     <use xlink:href="#ArialUnicodeMS-6b" x="1314.0625"/>
     <use xlink:href="#ArialUnicodeMS-20" x="1364.0625"/>
     <use xlink:href="#ArialUnicodeMS-5bf9" x="1391.845703"/>
     <use xlink:href="#ArialUnicodeMS-5e94" x="1491.845703"/>
     <use xlink:href="#ArialUnicodeMS-7f29" x="1591.845703"/>
     <use xlink:href="#ArialUnicodeMS-653e" x="1691.845703"/>
     <use xlink:href="#ArialUnicodeMS-56e0" x="1791.845703"/>
     <use xlink:href="#ArialUnicodeMS-5b50" x="1891.845703"/>
     <use xlink:href="#ArialUnicodeMS-3002" x="1991.845703"/>
     <use xlink:href="#ArialUnicodeMS-73" x="2091.845703"/>
     <use xlink:href="#ArialUnicodeMS-66" x="2141.845703"/>
     <use xlink:href="#ArialUnicodeMS-5f" x="2169.628906"/>
     <use xlink:href="#ArialUnicodeMS-70" x="2219.628906"/>
     <use xlink:href="#ArialUnicodeMS-65" x="2275.244141"/>
     <use xlink:href="#ArialUnicodeMS-72" x="2330.859375"/>
     <use xlink:href="#ArialUnicodeMS-5f" x="2364.160156"/>
     <use xlink:href="#ArialUnicodeMS-6d" x="2414.160156"/>
     <use xlink:href="#ArialUnicodeMS-6d" x="2497.460938"/>
     <use xlink:href="#ArialUnicodeMS-61" x="2580.761719"/>
     <use xlink:href="#ArialUnicodeMS-ff08" x="2636.376953"/>
     <use xlink:href="#ArialUnicodeMS-201c" x="2736.376953"/>
     <use xlink:href="#ArialUnicodeMS-d7" x="2769.677734"/>
     <use xlink:href="#ArialUnicodeMS-4e" x="2828.076172"/>
     <use xlink:href="#ArialUnicodeMS-201d" x="2900.292969"/>
     <use xlink:href="#ArialUnicodeMS-ff09" x="2933.59375"/>
     <use xlink:href="#ArialUnicodeMS-3d" x="3033.59375"/>
     <use xlink:href="#ArialUnicodeMS-20" x="3091.992188"/>
     <use xlink:href="#ArialUnicodeMS-6d" x="3119.775391"/>
     <use xlink:href="#ArialUnicodeMS-6d" x="3203.076172"/>
     <use xlink:href="#ArialUnicodeMS-61" x="3286.376953"/>
     <use xlink:href="#ArialUnicodeMS-5f" x="3341.992188"/>
     <use xlink:href="#ArialUnicodeMS-6b" x="3391.992188"/>
     <use xlink:href="#ArialUnicodeMS-20" x="3441.992188"/>
     <use xlink:href="#ArialUnicodeMS-2f" x="3469.775391"/>
     <use xlink:href="#ArialUnicodeMS-20" x="3497.558594"/>
     <use xlink:href="#ArialUnicodeMS-53" x="3525.341797"/>
     <use xlink:href="#ArialUnicodeMS-46" x="3592.041016"/>
     <use xlink:href="#ArialUnicodeMS-5f" x="3653.125"/>
     <use xlink:href="#ArialUnicodeMS-56" x="3703.125"/>
     <use xlink:href="#ArialUnicodeMS-45" x="3769.824219"/>
     <use xlink:href="#ArialUnicodeMS-43" x="3836.523438"/>
     <use xlink:href="#ArialUnicodeMS-ff1a" x="3908.740234"/>
     <use xlink:href="#ArialUnicodeMS-66" x="4008.740234"/>
     <use xlink:href="#ArialUnicodeMS-70" x="4036.523438"/>
     <use xlink:href="#ArialUnicodeMS-38" x="4092.138672"/>
     <use xlink:href="#ArialUnicodeMS-20" x="4147.753906"/>
     <use xlink:href="#ArialUnicodeMS-4e3a" x="4175.537109"/>
     <use xlink:href="#ArialUnicodeMS-20" x="4275.537109"/>
     <use xlink:href="#ArialUnicodeMS-31" x="4303.320312"/>
     <use xlink:href="#ArialUnicodeMS-ff0c" x="4358.935547"/>
     <use xlink:href="#ArialUnicodeMS-6d" x="4458.935547"/>
     <use xlink:href="#ArialUnicodeMS-78" x="4542.236328"/>
     <use xlink:href="#ArialUnicodeMS-66" x="4592.236328"/>
     <use xlink:href="#ArialUnicodeMS-70" x="4620.019531"/>
     <use xlink:href="#ArialUnicodeMS-34" x="4675.634766"/>
     <use xlink:href="#ArialUnicodeMS-20" x="4731.25"/>
     <use xlink:href="#ArialUnicodeMS-4e3a" x="4759.033203"/>
     <use xlink:href="#ArialUnicodeMS-20" x="4859.033203"/>
     <use xlink:href="#ArialUnicodeMS-32" x="4886.816406"/>
     <use xlink:href="#ArialUnicodeMS-ff0c" x="4942.431641"/>
     <use xlink:href="#ArialUnicodeMS-6e" x="5042.431641"/>
     <use xlink:href="#ArialUnicodeMS-76" x="5098.046875"/>
     <use xlink:href="#ArialUnicodeMS-66" x="5148.046875"/>
     <use xlink:href="#ArialUnicodeMS-70" x="5175.830078"/>
     <use xlink:href="#ArialUnicodeMS-34" x="5231.445312"/>
     <use xlink:href="#ArialUnicodeMS-20" x="5287.060547"/>
     <use xlink:href="#ArialUnicodeMS-4e3a" x="5314.84375"/>
     <use xlink:href="#ArialUnicodeMS-20" x="5414.84375"/>
     <use xlink:href="#ArialUnicodeMS-34" x="5442.626953"/>
     <use xlink:href="#ArialUnicodeMS-3002" x="5498.242188"/>
    </g>
   </g>
   <g id="text_29">
    <!-- 三种模式的 lane/列放置相同（TLane = m%32，m//32 → column）；只有 byte 打包方式不同。 -->
    <g style="fill: #1f2937" transform="translate(116.60375 252.02304) scale(0.076 -0.076)">
     <defs>
      <path id="ArialUnicodeMS-4e09" d="M 5459 4056 
L 978 4056 
L 978 4563 
L 5459 4563 
L 5459 4056 
z
M 5088 2216 
L 1344 2216 
L 1344 2700 
L 5088 2700 
L 5088 2216 
z
M 5831 206 
L 634 206 
L 634 691 
L 5831 691 
L 5831 206 
z
" transform="scale(0.015625)"/>
      <path id="ArialUnicodeMS-79cd" d="M 5869 1503 
L 4588 1503 
L 4588 -447 
L 4097 -447 
L 4097 1497 
L 2828 1497 
L 2828 4038 
L 4091 4038 
L 4091 5288 
L 4588 5288 
L 4588 4031 
L 5869 4031 
L 5869 1503 
z
M 4091 1972 
L 4091 3559 
L 3322 3566 
L 3322 1972 
L 4091 1972 
z
M 5369 1972 
L 5369 3559 
L 4588 3559 
L 4588 1972 
L 5369 1972 
z
M 2791 1753 
L 2363 1478 
Q 2163 2081 1913 2322 
L 1913 -434 
L 1434 -434 
L 1434 2047 
L 1422 2047 
Q 1163 1450 672 903 
L 288 1209 
Q 1044 2047 1375 3263 
L 513 3263 
L 519 3738 
L 1434 3738 
L 1434 4441 
Q 1378 4438 1122 4398 
Q 866 4359 659 4366 
L 428 4831 
Q 1544 4838 2463 5241 
L 2713 4819 
Q 2147 4606 1913 4550 
L 1913 3738 
L 2753 3738 
L 2753 3256 
L 1913 3256 
L 1913 2725 
L 2075 2816 
Q 2581 2375 2791 1753 
z
" transform="scale(0.015625)"/>
      <path id="ArialUnicodeMS-5217" d="M 5766 109 
Q 5766 -163 5578 -289 
Q 5391 -416 4803 -416 
Q 4669 -416 4513 -409 
L 4319 116 
Q 4822 94 4988 94 
Q 5259 94 5259 288 
L 5259 5325 
L 5766 5325 
L 5766 109 
z
M 4000 4513 
L 2228 4513 
Q 2209 4088 2059 3444 
L 3681 3444 
Q 3594 1809 2800 893 
Q 2006 -22 838 -488 
L 588 -19 
Q 1009 125 1643 520 
Q 2278 916 2278 1066 
Q 2278 1122 2076 1390 
Q 1875 1659 1484 1913 
L 1894 2278 
Q 2272 1969 2613 1516 
Q 2981 2028 3138 2975 
L 1919 2975 
Q 1684 2341 991 1600 
L 531 1863 
Q 1703 3134 1703 4513 
L 703 4513 
L 703 4978 
L 4000 4978 
L 4000 4513 
z
M 4609 916 
L 4103 916 
L 4103 4453 
L 4609 4453 
L 4609 916 
z
" transform="scale(0.015625)"/>
      <path id="ArialUnicodeMS-76f8" d="M 3009 1791 
L 2566 1503 
Q 2322 1975 2003 2406 
L 2003 -416 
L 1509 -416 
L 1509 2094 
Q 1313 1497 659 678 
L 275 972 
Q 1053 1969 1459 3603 
L 519 3603 
L 519 4072 
L 1516 4072 
L 1516 5300 
L 2003 5300 
L 2003 4072 
L 2881 4072 
L 2881 3603 
L 2003 3603 
L 2003 2900 
L 2131 2975 
Q 2681 2434 3009 1791 
z
M 5691 -416 
L 5178 -416 
L 5178 38 
L 3659 38 
L 3659 -416 
L 3150 -416 
L 3150 4966 
L 5691 4966 
L 5691 -416 
z
M 5178 3547 
L 5178 4500 
L 3659 4500 
L 3659 3547 
L 5178 3547 
z
M 5178 2059 
L 5178 3078 
L 3659 3078 
L 3659 2059 
L 5178 2059 
z
M 5178 506 
L 5178 1594 
L 3659 1594 
L 3659 506 
L 5178 506 
z
" transform="scale(0.015625)"/>
      <path id="ArialUnicodeMS-540c" d="M 5644 441 
Q 5644 13 5467 -157 
Q 5291 -328 4663 -328 
Q 4519 -328 4347 -319 
L 4172 206 
Q 4822 206 4981 250 
Q 5141 294 5141 544 
L 5141 4569 
L 1259 4569 
L 1259 -481 
L 756 -481 
L 756 5038 
L 5644 5038 
L 5644 441 
z
M 4941 3406 
L 1569 3406 
L 1569 3872 
L 4941 3872 
L 4941 3406 
z
M 4422 781 
L 1984 781 
L 1984 2700 
L 4422 2700 
L 4422 781 
z
M 3938 1247 
L 3938 2234 
L 2472 2234 
L 2472 1247 
L 3938 1247 
z
" transform="scale(0.015625)"/>
      <path id="ArialUnicodeMS-4c" d="M 3347 0 
L 481 0 
L 481 4581 
L 1088 4581 
L 1088 544 
L 3347 544 
L 3347 0 
z
" transform="scale(0.015625)"/>
      <path id="ArialUnicodeMS-25" d="M 4325 4659 
L 1838 -159 
L 1369 -159 
L 3872 4659 
L 4325 4659 
z
M 1428 4653 
Q 1856 4653 2137 4343 
Q 2419 4034 2419 3438 
Q 2419 2850 2131 2539 
Q 1844 2228 1434 2228 
Q 1009 2228 739 2540 
Q 469 2853 469 3475 
Q 469 3984 722 4318 
Q 975 4653 1428 4653 
z
M 1441 2619 
Q 1931 2619 1931 3463 
Q 1931 4269 1441 4269 
Q 953 4269 953 3419 
Q 953 2619 1441 2619 
z
M 4250 2253 
Q 4681 2253 4961 1943 
Q 5241 1634 5241 1038 
Q 5241 600 5087 328 
Q 4934 56 4709 -58 
Q 4484 -172 4256 -172 
Q 3831 -172 3561 140 
Q 3291 453 3291 1075 
Q 3291 1584 3544 1918 
Q 3797 2253 4250 2253 
z
M 4263 219 
Q 4756 219 4756 1063 
Q 4756 1869 4263 1869 
Q 3775 1869 3775 1019 
Q 3775 219 4263 219 
z
" transform="scale(0.015625)"/>
      <path id="ArialUnicodeMS-2192" d="M 4306 1563 
Q 3528 1278 3091 641 
L 2869 641 
Q 3019 1088 3372 1484 
L 256 1484 
L 256 1791 
L 3372 1791 
Q 3019 2188 2869 2638 
L 3091 2638 
Q 3528 2000 4306 1716 
L 4306 1563 
z
" transform="scale(0.015625)"/>
      <path id="ArialUnicodeMS-ff1b" d="M 3544 2675 
L 2903 2675 
L 2903 3316 
L 3544 3316 
L 3544 2675 
z
M 3544 0 
Q 3544 -397 3392 -606 
Q 3241 -816 3019 -903 
L 2866 -666 
Q 3216 -516 3219 0 
L 2903 0 
L 2903 641 
L 3544 641 
L 3544 0 
z
" transform="scale(0.015625)"/>
      <path id="ArialUnicodeMS-53ea" d="M 5100 2081 
L 1375 2081 
L 1375 4941 
L 5100 4941 
L 5100 2081 
z
M 4588 2566 
L 4588 4453 
L 1869 4453 
L 1869 2566 
L 4588 2566 
z
M 2816 1594 
Q 2166 563 703 -219 
L 372 213 
Q 1778 919 2400 1894 
L 2816 1594 
z
M 5941 109 
L 5563 -256 
Q 4828 866 3622 1522 
L 3981 1869 
Q 5125 1297 5941 109 
z
" transform="scale(0.015625)"/>
      <path id="ArialUnicodeMS-6709" d="M 5991 4031 
L 2547 4031 
Q 2403 3600 2316 3438 
L 5216 3438 
L 5216 166 
Q 5178 -269 4550 -269 
L 4031 -269 
L 3809 225 
Q 4103 184 4447 184 
Q 4728 184 4728 300 
L 4728 934 
L 2322 934 
L 2322 -416 
L 1813 -416 
L 1813 2656 
Q 1644 2369 738 1434 
L 288 1728 
Q 1619 2903 2022 4031 
L 678 4031 
L 678 4500 
L 2203 4500 
Q 2288 4700 2450 5403 
L 2944 5294 
Q 2884 5041 2731 4500 
L 5991 4500 
L 5991 4031 
z
M 4728 2450 
L 4728 2969 
L 2322 2969 
L 2322 2450 
L 4728 2450 
z
M 4728 1403 
L 4728 1984 
L 2322 1984 
L 2322 1403 
L 4728 1403 
z
" transform="scale(0.015625)"/>
      <path id="ArialUnicodeMS-65b9" d="M 5991 3803 
L 2772 3803 
Q 2772 3413 2731 2747 
L 5141 2747 
Q 5119 1750 4973 931 
Q 4828 113 4617 -62 
Q 4406 -238 4166 -238 
Q 3847 -238 3003 -25 
L 2906 544 
Q 3750 238 4056 238 
Q 4178 238 4267 336 
Q 4356 434 4456 970 
Q 4556 1506 4575 2278 
L 2694 2278 
Q 2472 1097 1965 481 
Q 1459 -134 666 -428 
L 331 31 
Q 1184 341 1559 805 
Q 1934 1269 2090 1803 
Q 2247 2338 2247 3803 
L 647 3803 
L 647 4269 
L 2956 4269 
L 2956 5259 
L 3444 5259 
L 3444 4269 
L 5991 4269 
L 5991 3803 
z
" transform="scale(0.015625)"/>
      <path id="ArialUnicodeMS-4e0d" d="M 5900 4434 
L 3834 4434 
Q 3700 4209 3425 3816 
L 3425 -416 
L 2900 -416 
L 2900 3194 
Q 2281 2363 775 1528 
L 453 1947 
Q 1431 2419 2047 2975 
Q 2663 3531 3219 4434 
L 550 4434 
L 550 4922 
L 5900 4922 
L 5900 4434 
z
M 5941 1838 
L 5550 1503 
Q 4619 2634 3597 3078 
L 3938 3419 
Q 4969 2953 5941 1838 
z
" transform="scale(0.015625)"/>
     </defs>
     <use xlink:href="#ArialUnicodeMS-4e09"/>
     <use xlink:href="#ArialUnicodeMS-79cd" x="100"/>
     <use xlink:href="#ArialUnicodeMS-6a21" x="200"/>
     <use xlink:href="#ArialUnicodeMS-5f0f" x="300"/>
     <use xlink:href="#ArialUnicodeMS-7684" x="400"/>
     <use xlink:href="#ArialUnicodeMS-20" x="500"/>
     <use xlink:href="#ArialUnicodeMS-6c" x="527.783203"/>
     <use xlink:href="#ArialUnicodeMS-61" x="550"/>
     <use xlink:href="#ArialUnicodeMS-6e" x="605.615234"/>
     <use xlink:href="#ArialUnicodeMS-65" x="661.230469"/>
     <use xlink:href="#ArialUnicodeMS-2f" x="716.845703"/>
     <use xlink:href="#ArialUnicodeMS-5217" x="744.628906"/>
     <use xlink:href="#ArialUnicodeMS-653e" x="844.628906"/>
     <use xlink:href="#ArialUnicodeMS-7f6e" x="944.628906"/>
     <use xlink:href="#ArialUnicodeMS-76f8" x="1044.628906"/>
     <use xlink:href="#ArialUnicodeMS-540c" x="1144.628906"/>
     <use xlink:href="#ArialUnicodeMS-ff08" x="1244.628906"/>
     <use xlink:href="#ArialUnicodeMS-54" x="1344.628906"/>
     <use xlink:href="#ArialUnicodeMS-4c" x="1405.712891"/>
     <use xlink:href="#ArialUnicodeMS-61" x="1461.328125"/>
     <use xlink:href="#ArialUnicodeMS-6e" x="1516.943359"/>
     <use xlink:href="#ArialUnicodeMS-65" x="1572.558594"/>
     <use xlink:href="#ArialUnicodeMS-20" x="1628.173828"/>
     <use xlink:href="#ArialUnicodeMS-3d" x="1655.957031"/>
     <use xlink:href="#ArialUnicodeMS-20" x="1714.355469"/>
     <use xlink:href="#ArialUnicodeMS-6d" x="1742.138672"/>
     <use xlink:href="#ArialUnicodeMS-25" x="1825.439453"/>
     <use xlink:href="#ArialUnicodeMS-33" x="1914.355469"/>
     <use xlink:href="#ArialUnicodeMS-32" x="1969.970703"/>
     <use xlink:href="#ArialUnicodeMS-ff0c" x="2025.585938"/>
     <use xlink:href="#ArialUnicodeMS-6d" x="2125.585938"/>
     <use xlink:href="#ArialUnicodeMS-2f" x="2208.886719"/>
     <use xlink:href="#ArialUnicodeMS-2f" x="2236.669922"/>
     <use xlink:href="#ArialUnicodeMS-33" x="2264.453125"/>
     <use xlink:href="#ArialUnicodeMS-32" x="2320.068359"/>
     <use xlink:href="#ArialUnicodeMS-20" x="2375.683594"/>
     <use xlink:href="#ArialUnicodeMS-2192" x="2403.466797"/>
     <use xlink:href="#ArialUnicodeMS-20" x="2474.755859"/>
     <use xlink:href="#ArialUnicodeMS-63" x="2502.539062"/>
     <use xlink:href="#ArialUnicodeMS-6f" x="2552.539062"/>
     <use xlink:href="#ArialUnicodeMS-6c" x="2608.154297"/>
     <use xlink:href="#ArialUnicodeMS-75" x="2630.371094"/>
     <use xlink:href="#ArialUnicodeMS-6d" x="2685.986328"/>
     <use xlink:href="#ArialUnicodeMS-6e" x="2769.287109"/>
     <use xlink:href="#ArialUnicodeMS-ff09" x="2824.902344"/>
     <use xlink:href="#ArialUnicodeMS-ff1b" x="2924.902344"/>
     <use xlink:href="#ArialUnicodeMS-53ea" x="3024.902344"/>
     <use xlink:href="#ArialUnicodeMS-6709" x="3124.902344"/>
     <use xlink:href="#ArialUnicodeMS-20" x="3224.902344"/>
     <use xlink:href="#ArialUnicodeMS-62" x="3252.685547"/>
     <use xlink:href="#ArialUnicodeMS-79" x="3308.300781"/>
     <use xlink:href="#ArialUnicodeMS-74" x="3358.300781"/>
     <use xlink:href="#ArialUnicodeMS-65" x="3386.083984"/>
     <use xlink:href="#ArialUnicodeMS-20" x="3441.699219"/>
     <use xlink:href="#ArialUnicodeMS-6253" x="3469.482422"/>
     <use xlink:href="#ArialUnicodeMS-5305" x="3569.482422"/>
     <use xlink:href="#ArialUnicodeMS-65b9" x="3669.482422"/>
     <use xlink:href="#ArialUnicodeMS-5f0f" x="3769.482422"/>
     <use xlink:href="#ArialUnicodeMS-4e0d" x="3869.482422"/>
     <use xlink:href="#ArialUnicodeMS-540c" x="3969.482422"/>
     <use xlink:href="#ArialUnicodeMS-3002" x="4069.482422"/>
    </g>
   </g>
  </g>
 </g>
 <defs>
  <clipPath id="p0de423f9c1">
   <rect x="7.2" y="7.2" width="535.68" height="255.024"/>
  </clipPath>
 </defs>
</svg>
